G04 Layer_Color=2752767*
%FSAX25Y25*%
%MOIN*%
G70*
G01*
G75*
%ADD85C,0.00200*%
%ADD86C,0.00267*%
D85*
X0343494Y0464900D02*
Y0466500D01*
X0345094D01*
Y0464900D01*
X0343494D01*
X0293100D02*
Y0466500D01*
X0294700D01*
Y0464900D01*
X0293100D01*
X0346000Y0109000D02*
X0345200Y0110600D01*
X0346800D01*
X0346000Y0109000D01*
X0346063Y0410224D02*
X0345263Y0411824D01*
X0346863D01*
X0346063Y0410224D01*
X0109843Y0109043D02*
X0109043Y0110643D01*
X0110643D01*
X0109843Y0109043D01*
X0169001Y0110200D02*
X0169401Y0110600D01*
X0169801D01*
X0169401Y0111000D01*
X0169801Y0111400D01*
X0169401D01*
X0169001Y0111800D01*
X0168601Y0111400D01*
X0168201D01*
X0168601Y0111000D01*
X0168201Y0110600D01*
X0168601D01*
X0169001Y0110200D01*
X0185300D02*
X0185700Y0110600D01*
X0186100D01*
X0185700Y0111000D01*
X0186100Y0111400D01*
X0185700D01*
X0185300Y0111800D01*
X0184900Y0111400D01*
X0184500D01*
X0184900Y0111000D01*
X0184500Y0110600D01*
X0184900D01*
X0185300Y0110200D01*
X0218319D02*
X0218719Y0111000D01*
X0218319Y0111800D01*
X0219119Y0111400D01*
X0219919Y0111800D01*
X0219519Y0111000D01*
X0219919Y0110200D01*
X0219119Y0110600D01*
X0218319Y0110200D01*
X0201599D02*
X0201999Y0110600D01*
X0202399D01*
X0201999Y0111000D01*
X0202399Y0111400D01*
X0201999D01*
X0201599Y0111800D01*
X0201199Y0111400D01*
X0200799D01*
X0201199Y0111000D01*
X0200799Y0110600D01*
X0201199D01*
X0201599Y0110200D01*
X0109800Y0463400D02*
X0109000Y0465000D01*
X0110600D01*
X0109800Y0463400D01*
X0153700Y0346500D02*
Y0346100D01*
X0154500D01*
Y0346500D01*
X0154900D01*
Y0347300D01*
X0154500D01*
Y0347700D01*
X0153700D01*
Y0347300D01*
X0153300D01*
Y0346500D01*
X0153700D01*
Y0366500D02*
Y0366100D01*
X0154500D01*
Y0366500D01*
X0154900D01*
Y0367300D01*
X0154500D01*
Y0367700D01*
X0153700D01*
Y0367300D01*
X0153300D01*
Y0366500D01*
X0153700D01*
X0133700D02*
Y0366100D01*
X0134500D01*
Y0366500D01*
X0134900D01*
Y0367300D01*
X0134500D01*
Y0367700D01*
X0133700D01*
Y0367300D01*
X0133300D01*
Y0366500D01*
X0133700D01*
Y0346500D02*
Y0346100D01*
X0134500D01*
Y0346500D01*
X0134900D01*
Y0347300D01*
X0134500D01*
Y0347700D01*
X0133700D01*
Y0347300D01*
X0133300D01*
Y0346500D01*
X0133700D01*
X0330964Y0239300D02*
Y0238900D01*
X0331764D01*
Y0239300D01*
X0332164D01*
Y0240100D01*
X0331764D01*
Y0240500D01*
X0330964D01*
Y0240100D01*
X0330564D01*
Y0239300D01*
X0330964D01*
X0301436D02*
Y0238900D01*
X0302236D01*
Y0239300D01*
X0302636D01*
Y0240100D01*
X0302236D01*
Y0240500D01*
X0301436D01*
Y0240100D01*
X0301036D01*
Y0239300D01*
X0301436D01*
X0301236Y0155600D02*
Y0155200D01*
X0302036D01*
Y0155600D01*
X0302436D01*
Y0156400D01*
X0302036D01*
Y0156800D01*
X0301236D01*
Y0156400D01*
X0300836D01*
Y0155600D01*
X0301236D01*
X0330764D02*
Y0155200D01*
X0331564D01*
Y0155600D01*
X0331964D01*
Y0156400D01*
X0331564D01*
Y0156800D01*
X0330764D01*
Y0156400D01*
X0330364D01*
Y0155600D01*
X0330764D01*
X0115668Y0327206D02*
X0116068D01*
X0116468Y0327606D01*
X0116868Y0327206D01*
X0117268D01*
Y0327606D01*
X0116868Y0328006D01*
X0117268Y0328406D01*
Y0328806D01*
X0116868D01*
X0116468Y0328406D01*
X0116068Y0328806D01*
X0115668D01*
Y0328406D01*
X0116068Y0328006D01*
X0115668Y0327606D01*
Y0327206D01*
X0263306D02*
X0263706D01*
X0264106Y0327606D01*
X0264506Y0327206D01*
X0264906D01*
Y0327606D01*
X0264506Y0328006D01*
X0264906Y0328406D01*
Y0328806D01*
X0264506D01*
X0264106Y0328406D01*
X0263706Y0328806D01*
X0263306D01*
Y0328406D01*
X0263706Y0328006D01*
X0263306Y0327606D01*
Y0327206D01*
X0115668Y0140198D02*
X0116068D01*
X0116468Y0140598D01*
X0116868Y0140198D01*
X0117268D01*
Y0140598D01*
X0116868Y0140998D01*
X0117268Y0141398D01*
Y0141798D01*
X0116868D01*
X0116468Y0141398D01*
X0116068Y0141798D01*
X0115668D01*
Y0141398D01*
X0116068Y0140998D01*
X0115668Y0140598D01*
Y0140198D01*
X0263306D02*
X0263706D01*
X0264106Y0140598D01*
X0264506Y0140198D01*
X0264906D01*
Y0140598D01*
X0264506Y0140998D01*
X0264906Y0141398D01*
Y0141798D01*
X0264506D01*
X0264106Y0141398D01*
X0263706Y0141798D01*
X0263306D01*
Y0141398D01*
X0263706Y0140998D01*
X0263306Y0140598D01*
Y0140198D01*
X0120990Y0303000D02*
Y0302600D01*
X0121790D01*
Y0303000D01*
X0122190D01*
Y0303800D01*
X0121790D01*
Y0304200D01*
X0120990D01*
Y0303800D01*
X0120590D01*
Y0303000D01*
X0120990D01*
X0140675D02*
Y0302600D01*
X0141475D01*
Y0303000D01*
X0141875D01*
Y0303800D01*
X0141475D01*
Y0304200D01*
X0140675D01*
Y0303800D01*
X0140275D01*
Y0303000D01*
X0140675D01*
X0258785D02*
Y0302600D01*
X0259585D01*
Y0303000D01*
X0259985D01*
Y0303800D01*
X0259585D01*
Y0304200D01*
X0258785D01*
Y0303800D01*
X0258385D01*
Y0303000D01*
X0258785D01*
X0239100D02*
Y0302600D01*
X0239900D01*
Y0303000D01*
X0240300D01*
Y0303800D01*
X0239900D01*
Y0304200D01*
X0239100D01*
Y0303800D01*
X0238700D01*
Y0303000D01*
X0239100D01*
X0219415Y0165205D02*
Y0164805D01*
X0220215D01*
Y0165205D01*
X0220615D01*
Y0166005D01*
X0220215D01*
Y0166405D01*
X0219415D01*
Y0166005D01*
X0219015D01*
Y0165205D01*
X0219415D01*
X0258785D02*
Y0164805D01*
X0259585D01*
Y0165205D01*
X0259985D01*
Y0166005D01*
X0259585D01*
Y0166405D01*
X0258785D01*
Y0166005D01*
X0258385D01*
Y0165205D01*
X0258785D01*
X0120990D02*
Y0164805D01*
X0121790D01*
Y0165205D01*
X0122190D01*
Y0166005D01*
X0121790D01*
Y0166405D01*
X0120990D01*
Y0166005D01*
X0120590D01*
Y0165205D01*
X0120990D01*
X0160360D02*
Y0164805D01*
X0161160D01*
Y0165205D01*
X0161560D01*
Y0166005D01*
X0161160D01*
Y0166405D01*
X0160360D01*
Y0166005D01*
X0159960D01*
Y0165205D01*
X0160360D01*
X0126500Y0393800D02*
X0127300Y0394600D01*
X0128100Y0393800D01*
X0127300Y0393000D01*
X0126500Y0393800D01*
X0132100D02*
X0132900Y0394600D01*
X0133700Y0393800D01*
X0132900Y0393000D01*
X0132100Y0393800D01*
X0114700Y0393900D02*
X0115500Y0394700D01*
X0116300Y0393900D01*
X0115500Y0393100D01*
X0114700Y0393900D01*
X0120500Y0393800D02*
X0121300Y0394600D01*
X0122100Y0393800D01*
X0121300Y0393000D01*
X0120500Y0393800D01*
X0332100Y0274000D02*
X0332900Y0274800D01*
X0333700Y0274000D01*
X0332900Y0273200D01*
X0332100Y0274000D01*
Y0279400D02*
X0332900Y0280200D01*
X0333700Y0279400D01*
X0332900Y0278600D01*
X0332100Y0279400D01*
X0305100Y0376000D02*
X0305900Y0376800D01*
X0306700Y0376000D01*
X0305900Y0375200D01*
X0305100Y0376000D01*
Y0370900D02*
X0305900Y0371700D01*
X0306700Y0370900D01*
X0305900Y0370100D01*
X0305100Y0370900D01*
X0198800Y0449400D02*
X0199600Y0450200D01*
X0200400Y0449400D01*
X0199600Y0448600D01*
X0198800Y0449400D01*
X0281800Y0430200D02*
X0282600Y0431000D01*
X0283400Y0430200D01*
X0282600Y0429400D01*
X0281800Y0430200D01*
X0286800Y0387100D02*
X0287600Y0387900D01*
X0288400Y0387100D01*
X0287600Y0386300D01*
X0286800Y0387100D01*
X0323200D02*
X0324000Y0387900D01*
X0324800Y0387100D01*
X0324000Y0386300D01*
X0323200Y0387100D01*
X0323000Y0374300D02*
X0323800Y0375100D01*
X0324600Y0374300D01*
X0323800Y0373500D01*
X0323000Y0374300D01*
X0126700Y0424700D02*
X0127500Y0425500D01*
X0128300Y0424700D01*
X0127500Y0423900D01*
X0126700Y0424700D01*
X0115400Y0424800D02*
X0116200Y0425600D01*
X0117000Y0424800D01*
X0116200Y0424000D01*
X0115400Y0424800D01*
X0131900Y0404500D02*
X0132700Y0405300D01*
X0133500Y0404500D01*
X0132700Y0403700D01*
X0131900Y0404500D01*
X0120600Y0399200D02*
X0121400Y0400000D01*
X0122200Y0399200D01*
X0121400Y0398400D01*
X0120600Y0399200D01*
X0131900Y0424700D02*
X0132700Y0425500D01*
X0133500Y0424700D01*
X0132700Y0423900D01*
X0131900Y0424700D01*
X0121100Y0424800D02*
X0121900Y0425600D01*
X0122700Y0424800D01*
X0121900Y0424000D01*
X0121100Y0424800D01*
X0114700Y0399300D02*
X0115500Y0400100D01*
X0116300Y0399300D01*
X0115500Y0398500D01*
X0114700Y0399300D01*
X0114800Y0404500D02*
X0115600Y0405300D01*
X0116400Y0404500D01*
X0115600Y0403700D01*
X0114800Y0404500D01*
X0126300Y0404400D02*
X0127100Y0405200D01*
X0127900Y0404400D01*
X0127100Y0403600D01*
X0126300Y0404400D01*
X0131900Y0399300D02*
X0132700Y0400100D01*
X0133500Y0399300D01*
X0132700Y0398500D01*
X0131900Y0399300D01*
X0126400D02*
X0127200Y0400100D01*
X0128000Y0399300D01*
X0127200Y0398500D01*
X0126400Y0399300D01*
X0120600Y0404500D02*
X0121400Y0405300D01*
X0122200Y0404500D01*
X0121400Y0403700D01*
X0120600Y0404500D01*
X0344143Y0364400D02*
X0344943Y0365200D01*
X0345743Y0364400D01*
X0344943Y0363600D01*
X0344143Y0364400D01*
X0246900Y0348000D02*
X0247700Y0348800D01*
X0248500Y0348000D01*
X0247700Y0347200D01*
X0246900Y0348000D01*
X0246500Y0407000D02*
X0247300Y0407800D01*
X0248100Y0407000D01*
X0247300Y0406200D01*
X0246500Y0407000D01*
X0198700Y0436100D02*
X0199500Y0436900D01*
X0200300Y0436100D01*
X0199500Y0435300D01*
X0198700Y0436100D01*
X0350200Y0359100D02*
X0351000Y0359900D01*
X0351800Y0359100D01*
X0351000Y0358300D01*
X0350200Y0359100D01*
X0299400Y0197800D02*
X0300200Y0198600D01*
X0301000Y0197800D01*
X0300200Y0197000D01*
X0299400Y0197800D01*
X0251600Y0348000D02*
X0252400Y0348800D01*
X0253200Y0348000D01*
X0252400Y0347200D01*
X0251600Y0348000D01*
X0302100Y0292637D02*
X0302900Y0293437D01*
X0303700Y0292637D01*
X0302900Y0291837D01*
X0302100Y0292637D01*
X0251000Y0407000D02*
X0251800Y0407800D01*
X0252600Y0407000D01*
X0251800Y0406200D01*
X0251000Y0407000D01*
X0199400Y0363300D02*
X0200200Y0364100D01*
X0201000Y0363300D01*
X0200200Y0362500D01*
X0199400Y0363300D01*
X0199600Y0377300D02*
X0200400Y0378100D01*
X0201200Y0377300D01*
X0200400Y0376500D01*
X0199600Y0377300D01*
D86*
X0333676Y0436763D02*
G03*
X0333676Y0436763I-0000800J0000000D01*
G01*
X0323834D02*
G03*
X0323834Y0436763I-0000800J0000000D01*
G01*
X0315960D02*
G03*
X0315960Y0436763I-0000800J0000000D01*
G01*
X0306117D02*
G03*
X0306117Y0436763I-0000800J0000000D01*
G01*
M02*
