G04 Layer_Color=65535*
%FSLAX23Y23*%
%MOIN*%
%TF.FileFunction,Legend,Top*%
%TF.Part,Single*%
G01*
G75*
%TA.AperFunction,NonConductor*%
%ADD10C,0.010*%
%ADD11C,0.008*%
%ADD12C,0.010*%
%ADD13C,0.005*%
%ADD14C,0.004*%
G36*
X1584Y253D02*
X1586Y252D01*
X1589Y251D01*
X1591Y250D01*
X1594Y249D01*
X1596Y247D01*
X1596Y246D01*
X1597Y246D01*
X1598Y244D01*
X1599Y244D01*
X1599Y243D01*
X1600Y242D01*
X1688Y89D01*
X1689Y89D01*
X1689Y88D01*
X1689Y86D01*
X1690Y84D01*
X1691Y82D01*
X1691Y79D01*
Y76D01*
X1691Y73D01*
Y73D01*
X1691Y72D01*
X1690Y71D01*
X1690Y70D01*
Y69D01*
X1690Y69D01*
X1689Y68D01*
X1689Y66D01*
X1688D01*
X1688Y66D01*
X1687Y65D01*
X1687Y64D01*
X1685Y62D01*
X1683Y61D01*
X1681Y59D01*
X1679Y57D01*
X1676Y56D01*
X1675D01*
X1675Y56D01*
X1673Y56D01*
X1672D01*
X1672Y55D01*
X1671D01*
X1669Y55D01*
X1492D01*
X1490Y55D01*
X1488Y56D01*
X1485Y57D01*
X1483Y58D01*
X1480Y59D01*
X1477Y61D01*
X1477Y62D01*
X1477Y62D01*
X1475Y64D01*
X1475Y64D01*
X1475Y64D01*
X1473Y66D01*
X1473Y67D01*
X1473Y68D01*
X1472Y69D01*
X1471Y71D01*
X1471Y73D01*
X1470Y76D01*
Y79D01*
X1471Y82D01*
Y83D01*
X1471Y83D01*
X1471Y85D01*
X1472Y85D01*
Y86D01*
X1472Y86D01*
X1472Y87D01*
X1473Y88D01*
Y89D01*
Y89D01*
X1473D01*
X1561Y241D01*
Y241D01*
X1562Y242D01*
X1563Y244D01*
X1565Y246D01*
X1568Y249D01*
X1568Y249D01*
X1570Y250D01*
X1570Y250D01*
X1570Y250D01*
X1572Y251D01*
X1573Y251D01*
X1575Y252D01*
X1577Y252D01*
X1579Y253D01*
X1582D01*
X1584Y253D01*
D02*
G37*
G36*
X1009Y3094D02*
X1011Y3093D01*
X1014Y3092D01*
X1016Y3091D01*
X1019Y3090D01*
X1021Y3088D01*
X1021Y3087D01*
X1022Y3087D01*
X1023Y3085D01*
X1024Y3085D01*
X1024Y3084D01*
X1025Y3083D01*
X1113Y2930D01*
X1114Y2930D01*
X1114Y2929D01*
X1114Y2927D01*
X1115Y2925D01*
X1116Y2923D01*
X1116Y2920D01*
Y2917D01*
X1116Y2914D01*
Y2914D01*
X1116Y2913D01*
X1115Y2912D01*
X1115Y2911D01*
Y2910D01*
X1115Y2910D01*
X1114Y2909D01*
X1114Y2907D01*
X1113D01*
X1113Y2907D01*
X1112Y2906D01*
X1112Y2905D01*
X1110Y2903D01*
X1108Y2902D01*
X1106Y2900D01*
X1104Y2898D01*
X1101Y2897D01*
X1100D01*
X1100Y2897D01*
X1098Y2897D01*
X1097D01*
X1097Y2896D01*
X1096D01*
X1094Y2896D01*
X917D01*
X915Y2896D01*
X913Y2897D01*
X910Y2898D01*
X908Y2899D01*
X905Y2900D01*
X902Y2902D01*
X902Y2903D01*
X902Y2903D01*
X900Y2905D01*
X900Y2905D01*
X900Y2905D01*
X898Y2907D01*
X898Y2908D01*
X898Y2909D01*
X897Y2910D01*
X896Y2912D01*
X896Y2914D01*
X895Y2917D01*
Y2920D01*
X896Y2923D01*
Y2924D01*
X896Y2924D01*
X896Y2926D01*
X897Y2926D01*
Y2927D01*
X897Y2927D01*
X897Y2928D01*
X898Y2929D01*
Y2930D01*
Y2930D01*
X898D01*
X986Y3082D01*
Y3082D01*
X987Y3083D01*
X988Y3085D01*
X990Y3087D01*
X993Y3090D01*
X993Y3090D01*
X995Y3091D01*
X995Y3091D01*
X995Y3091D01*
X997Y3092D01*
X998Y3092D01*
X1000Y3093D01*
X1002Y3093D01*
X1004Y3094D01*
X1007D01*
X1009Y3094D01*
D02*
G37*
%LPC*%
G36*
X1581Y238D02*
X1580D01*
X1579Y238D01*
X1577Y237D01*
X1575Y236D01*
Y236D01*
X1574Y236D01*
X1574D01*
X1573Y235D01*
X1573Y234D01*
X1571Y233D01*
X1570Y232D01*
X1486Y87D01*
Y87D01*
Y86D01*
X1486Y86D01*
X1486Y85D01*
Y85D01*
X1486Y84D01*
X1485Y83D01*
Y83D01*
Y82D01*
X1485Y82D01*
Y80D01*
X1485Y78D01*
X1486Y76D01*
X1486Y75D01*
X1487Y74D01*
X1488Y73D01*
X1488Y73D01*
X1489Y72D01*
X1489D01*
X1489Y71D01*
X1491Y70D01*
X1494Y69D01*
X1496Y69D01*
X1497Y69D01*
X1665D01*
Y69D01*
X1667D01*
X1668Y69D01*
X1668Y69D01*
X1668Y69D01*
X1668D01*
X1669Y69D01*
X1671Y70D01*
X1673Y72D01*
X1675Y75D01*
X1675Y75D01*
X1676Y76D01*
X1676Y78D01*
X1677Y81D01*
Y81D01*
Y82D01*
Y83D01*
X1676Y84D01*
X1676Y85D01*
X1675Y87D01*
Y87D01*
X1591Y232D01*
Y232D01*
X1591Y232D01*
X1590Y233D01*
X1590Y234D01*
X1589Y234D01*
X1589Y235D01*
X1589Y235D01*
X1587Y236D01*
X1584Y237D01*
X1583Y238D01*
X1581D01*
Y238D01*
D02*
G37*
%LPD*%
G36*
X1557Y139D02*
X1612Y167D01*
X1578Y97D01*
X1590Y100D01*
X1570Y77D01*
X1566Y105D01*
X1575Y98D01*
X1588Y148D01*
X1546Y127D01*
X1573Y221D01*
X1593Y221D01*
X1557Y139D01*
D02*
G37*
%LPC*%
G36*
X965Y2988D02*
Y2987D01*
Y2987D01*
X965Y2985D01*
X964Y2982D01*
X962Y2979D01*
Y2979D01*
X962Y2978D01*
X961Y2977D01*
X960Y2975D01*
X960Y2973D01*
Y2973D01*
X960Y2972D01*
Y2971D01*
X960Y2970D01*
Y2968D01*
X960Y2966D01*
X961Y2964D01*
Y2963D01*
X961Y2963D01*
X962Y2962D01*
X962Y2961D01*
Y2961D01*
Y2960D01*
X962Y2959D01*
X963Y2956D01*
X963Y2952D01*
Y2952D01*
Y2952D01*
X964Y2949D01*
X964Y2947D01*
X965Y2945D01*
X965Y2945D01*
X965Y2943D01*
X966Y2942D01*
X967Y2940D01*
X967Y2939D01*
X967Y2938D01*
X968Y2937D01*
X968Y2936D01*
X969D01*
X969Y2936D01*
X971D01*
X973Y2935D01*
X974Y2935D01*
X975Y2934D01*
X976Y2933D01*
X977Y2932D01*
X977Y2931D01*
X978Y2931D01*
X978Y2930D01*
X979Y2930D01*
X979Y2928D01*
Y2927D01*
Y2926D01*
Y2926D01*
Y2925D01*
Y2925D01*
Y2924D01*
X980Y2925D01*
X980Y2925D01*
X981Y2925D01*
X981Y2926D01*
X982Y2928D01*
X983Y2930D01*
Y2931D01*
Y2931D01*
X983Y2932D01*
Y2933D01*
X982Y2935D01*
X981Y2938D01*
X981Y2941D01*
X980Y2941D01*
Y2942D01*
X980Y2943D01*
X980Y2943D01*
Y2944D01*
X979Y2945D01*
Y2945D01*
X979Y2945D01*
Y2946D01*
Y2947D01*
Y2947D01*
Y2947D01*
Y2949D01*
Y2951D01*
X980Y2954D01*
Y2954D01*
Y2954D01*
X979Y2956D01*
X979Y2957D01*
X979Y2959D01*
Y2959D01*
X978Y2960D01*
X978Y2961D01*
X978Y2962D01*
X977Y2965D01*
X977Y2966D01*
Y2967D01*
Y2967D01*
X977Y2968D01*
X978Y2970D01*
X980Y2972D01*
Y2973D01*
X980Y2973D01*
X981Y2974D01*
X982Y2976D01*
X982Y2978D01*
X965Y2988D01*
D02*
G37*
G36*
X1013Y2936D02*
Y2936D01*
X1012Y2935D01*
Y2935D01*
X1012Y2933D01*
X1011Y2932D01*
X1010Y2930D01*
X1010Y2929D01*
X1011Y2929D01*
X1012Y2929D01*
X1014Y2928D01*
X1015D01*
X1016Y2929D01*
X1016Y2929D01*
X1017D01*
X1017Y2930D01*
Y2930D01*
X1017Y2931D01*
Y2931D01*
Y2931D01*
Y2932D01*
Y2933D01*
X1016Y2935D01*
X1016D01*
X1016Y2935D01*
X1015D01*
X1015Y2935D01*
X1015D01*
X1014Y2936D01*
X1013Y2936D01*
X1013Y2936D01*
D02*
G37*
G36*
X1012Y2961D02*
X1012Y2960D01*
X1010Y2959D01*
X1008Y2957D01*
X1005Y2955D01*
X1005D01*
X1005Y2955D01*
X1003Y2953D01*
X1001Y2951D01*
X998Y2949D01*
X998Y2948D01*
X997Y2947D01*
X996Y2946D01*
X995Y2944D01*
X993Y2941D01*
X992Y2939D01*
X991Y2936D01*
X991Y2934D01*
X991Y2934D01*
Y2933D01*
X991Y2934D01*
X991Y2934D01*
X992Y2935D01*
X992Y2935D01*
X992Y2935D01*
X993Y2936D01*
X995Y2937D01*
X996Y2938D01*
X997D01*
X997Y2938D01*
X998D01*
X998Y2938D01*
X998D01*
X999Y2938D01*
X1000D01*
X1001Y2939D01*
X1005D01*
X1006Y2938D01*
X1007Y2938D01*
X1008D01*
X1009Y2938D01*
Y2938D01*
X1010Y2938D01*
X1010Y2939D01*
Y2939D01*
X1010Y2940D01*
X1011Y2941D01*
X1011Y2942D01*
Y2942D01*
X1012Y2942D01*
X1012Y2944D01*
X1014Y2945D01*
X1016Y2947D01*
X1016D01*
X1016Y2948D01*
X1018Y2949D01*
X1019Y2950D01*
X1020D01*
X1020Y2950D01*
X1021Y2951D01*
X1023Y2952D01*
X1024Y2954D01*
X1012Y2961D01*
D02*
G37*
G36*
X1005Y2937D02*
X1004D01*
X1002Y2937D01*
X1001D01*
X1000Y2937D01*
X999Y2936D01*
X998D01*
X997Y2936D01*
X997D01*
X996Y2936D01*
X995Y2935D01*
X994Y2935D01*
X993Y2934D01*
X993Y2933D01*
X992Y2932D01*
X992Y2931D01*
X991Y2931D01*
X991Y2929D01*
Y2928D01*
X992Y2927D01*
X992Y2926D01*
X993Y2925D01*
X994Y2924D01*
X994Y2924D01*
X995Y2924D01*
X999D01*
X1000Y2924D01*
X1001Y2925D01*
X1001Y2925D01*
X1002Y2926D01*
X1002Y2926D01*
X1003Y2927D01*
X1005Y2928D01*
X1006Y2930D01*
Y2931D01*
X1007Y2931D01*
X1008Y2932D01*
X1009Y2934D01*
X1009Y2936D01*
X1009Y2936D01*
X1008Y2936D01*
X1007Y2937D01*
X1005Y2937D01*
D02*
G37*
G36*
X951Y2996D02*
X911Y2928D01*
Y2928D01*
Y2927D01*
X911Y2927D01*
X911Y2926D01*
X911Y2926D01*
X910Y2924D01*
Y2924D01*
Y2923D01*
X910Y2922D01*
Y2921D01*
X910Y2919D01*
X911Y2916D01*
X912D01*
X912Y2915D01*
X913Y2914D01*
X913Y2914D01*
X914Y2913D01*
X914D01*
X914Y2912D01*
X916Y2911D01*
X919Y2910D01*
X921Y2910D01*
X922Y2910D01*
X1090D01*
Y2910D01*
X1092D01*
X1092Y2910D01*
X1093D01*
X1094Y2911D01*
X1096Y2912D01*
X1027Y2952D01*
X1027Y2952D01*
X1026Y2951D01*
X1025Y2950D01*
X1024Y2949D01*
X1024Y2949D01*
X1025Y2948D01*
X1026Y2947D01*
X1028Y2946D01*
X1028Y2945D01*
X1028Y2945D01*
X1029Y2944D01*
X1029Y2943D01*
X1029Y2941D01*
Y2941D01*
X1029Y2940D01*
X1029Y2939D01*
X1028Y2938D01*
X1028Y2937D01*
X1028Y2936D01*
X1028Y2936D01*
X1026Y2935D01*
X1025Y2935D01*
X1022Y2934D01*
X1021D01*
Y2934D01*
X1021Y2933D01*
Y2932D01*
X1021Y2930D01*
Y2930D01*
Y2930D01*
X1020Y2929D01*
X1020Y2928D01*
X1019Y2928D01*
X1019Y2927D01*
X1019Y2927D01*
X1019Y2927D01*
X1017Y2926D01*
X1016Y2925D01*
X1013Y2925D01*
X1013D01*
X1012Y2925D01*
X1010Y2926D01*
X1008Y2927D01*
X1008Y2927D01*
X1007Y2926D01*
X1006Y2924D01*
X1004Y2923D01*
X1004D01*
X1004Y2922D01*
X1003Y2922D01*
X1002Y2921D01*
X1001D01*
X1001Y2921D01*
X999Y2921D01*
X995D01*
X994Y2921D01*
X992Y2921D01*
X991Y2922D01*
Y2923D01*
X991Y2923D01*
X990Y2924D01*
X989Y2925D01*
X989Y2926D01*
X988Y2928D01*
X988Y2930D01*
X988Y2932D01*
Y2932D01*
Y2933D01*
Y2933D01*
Y2933D01*
Y2934D01*
X988Y2936D01*
X988Y2938D01*
X988Y2938D01*
X987Y2938D01*
X986Y2939D01*
X986Y2940D01*
X985Y2940D01*
X984Y2940D01*
Y2940D01*
X984Y2939D01*
X985Y2938D01*
X985Y2936D01*
X986Y2933D01*
X986Y2931D01*
Y2930D01*
Y2929D01*
Y2929D01*
X986Y2927D01*
X984Y2925D01*
X984Y2924D01*
X982Y2922D01*
X982Y2922D01*
X981Y2922D01*
X979Y2921D01*
X979D01*
X978Y2920D01*
X977Y2920D01*
X975D01*
X974Y2921D01*
X972Y2921D01*
X970Y2923D01*
X970Y2924D01*
X970Y2924D01*
X969Y2925D01*
X968Y2926D01*
X968Y2928D01*
X967Y2930D01*
X966Y2932D01*
Y2933D01*
Y2933D01*
X966Y2933D01*
Y2933D01*
Y2934D01*
X965Y2934D01*
X965Y2936D01*
X964Y2937D01*
X964Y2938D01*
Y2938D01*
X963Y2939D01*
X963Y2940D01*
X962Y2942D01*
X962Y2944D01*
Y2944D01*
X961Y2946D01*
X961Y2947D01*
Y2948D01*
X960Y2950D01*
X960Y2952D01*
Y2952D01*
Y2953D01*
X960Y2954D01*
X960Y2955D01*
X959Y2957D01*
X959Y2960D01*
Y2960D01*
Y2960D01*
X958Y2961D01*
X958Y2962D01*
X958Y2963D01*
Y2963D01*
X958Y2964D01*
X957Y2966D01*
X957Y2967D01*
X956Y2971D01*
Y2973D01*
X957Y2974D01*
Y2974D01*
X957Y2975D01*
X958Y2977D01*
X959Y2980D01*
Y2980D01*
X960Y2981D01*
X960Y2982D01*
X961Y2983D01*
X962Y2987D01*
X962Y2989D01*
X951Y2996D01*
D02*
G37*
G36*
X1065Y2989D02*
X1065D01*
X1065Y2988D01*
X1063Y2987D01*
X1063Y2987D01*
X1063Y2986D01*
X1061Y2985D01*
X1060Y2983D01*
X1060Y2982D01*
X1060Y2982D01*
X1059Y2980D01*
X1058Y2977D01*
Y2977D01*
X1058Y2977D01*
X1057Y2975D01*
X1056Y2973D01*
X1055Y2971D01*
Y2971D01*
X1054Y2970D01*
X1053Y2969D01*
X1053Y2968D01*
X1052Y2968D01*
X1051Y2966D01*
X1051Y2966D01*
X1050Y2965D01*
X1048Y2964D01*
X1047Y2962D01*
X1043Y2959D01*
X1040Y2958D01*
X1038Y2957D01*
X1102Y2920D01*
Y2921D01*
Y2922D01*
Y2922D01*
Y2923D01*
Y2924D01*
X1101Y2925D01*
X1101Y2926D01*
X1100Y2928D01*
Y2928D01*
X1065Y2989D01*
D02*
G37*
G36*
X972Y2935D02*
X970D01*
X969Y2934D01*
X969D01*
X969Y2933D01*
Y2933D01*
X970Y2932D01*
X970Y2931D01*
X970Y2930D01*
X972Y2927D01*
X972Y2926D01*
X973Y2925D01*
X973Y2925D01*
X974Y2924D01*
X975Y2924D01*
X976Y2923D01*
X977D01*
X978Y2924D01*
Y2924D01*
Y2924D01*
Y2925D01*
X978Y2925D01*
Y2926D01*
Y2926D01*
Y2926D01*
Y2927D01*
X978Y2927D01*
Y2927D01*
X977Y2928D01*
X977Y2930D01*
Y2930D01*
X976Y2930D01*
X976Y2931D01*
X976Y2931D01*
Y2931D01*
X975Y2932D01*
X974Y2933D01*
X972Y2934D01*
X972Y2935D01*
D02*
G37*
G36*
X1047Y3020D02*
X1036Y3016D01*
X1036D01*
X1035Y3016D01*
X1035Y3016D01*
X1033Y3015D01*
X1030Y3015D01*
X1027Y3014D01*
X1024D01*
X1021Y3014D01*
X1017Y3015D01*
X1008D01*
X1004Y3014D01*
X999Y3013D01*
X999D01*
X998Y3013D01*
X997Y3012D01*
X995Y3011D01*
X994Y3010D01*
X991Y3009D01*
X989Y3008D01*
X986Y3006D01*
X986Y3005D01*
X985Y3005D01*
X984Y3004D01*
X982Y3003D01*
X981Y3003D01*
X981Y3002D01*
X979Y3001D01*
X979Y3001D01*
X978Y3001D01*
X977Y2999D01*
X975Y2998D01*
X974Y2998D01*
X974Y2997D01*
X973Y2996D01*
X972Y2995D01*
X1035Y2959D01*
X1035D01*
X1036Y2959D01*
X1037Y2960D01*
X1039Y2961D01*
X1041Y2962D01*
X1043Y2963D01*
X1046Y2966D01*
X1049Y2968D01*
X1049Y2969D01*
X1049Y2969D01*
X1051Y2971D01*
X1051Y2971D01*
X1051Y2971D01*
X1052Y2973D01*
X1053Y2973D01*
X1053Y2974D01*
X1054Y2976D01*
X1055Y2978D01*
Y2979D01*
X1055Y2979D01*
X1056Y2981D01*
X1056Y2982D01*
X1057Y2984D01*
X1058Y2985D01*
X1058Y2986D01*
X1060Y2988D01*
X1061Y2989D01*
X1061Y2990D01*
X1062Y2990D01*
X1063Y2991D01*
X1047Y3020D01*
D02*
G37*
G36*
X1006Y3079D02*
X1005D01*
X1004Y3079D01*
X1002Y3078D01*
X1000Y3077D01*
X999Y3077D01*
X999Y3077D01*
X999D01*
X998Y3076D01*
X998Y3075D01*
X996Y3074D01*
X995Y3073D01*
X956Y3004D01*
X969Y2997D01*
X969Y2997D01*
X970Y2998D01*
X971Y2999D01*
X973Y3001D01*
X973Y3001D01*
X974Y3002D01*
X976Y3003D01*
X978Y3004D01*
X978Y3004D01*
X979Y3005D01*
X979D01*
X979Y3005D01*
X980Y3006D01*
X981D01*
X981Y3006D01*
X982Y3007D01*
X984Y3008D01*
X984Y3008D01*
X985Y3009D01*
X986Y3009D01*
X987Y3010D01*
X989Y3011D01*
X993Y3014D01*
X996Y3015D01*
X998Y3016D01*
X998D01*
X999Y3016D01*
X1001Y3017D01*
X1002Y3017D01*
X1005Y3017D01*
X1007Y3018D01*
X1010Y3018D01*
X1014D01*
X1015Y3018D01*
X1020D01*
X1023Y3017D01*
X1028D01*
X1029Y3018D01*
X1032Y3018D01*
X1035Y3019D01*
X1045Y3023D01*
X1016Y3073D01*
X1016D01*
X1016Y3073D01*
X1015Y3074D01*
Y3075D01*
X1015Y3075D01*
X1014Y3075D01*
X1014Y3076D01*
X1014Y3076D01*
X1012Y3077D01*
X1009Y3078D01*
X1008Y3079D01*
X1006D01*
Y3079D01*
D02*
G37*
G36*
X1001Y2967D02*
Y2966D01*
Y2966D01*
X1001Y2965D01*
Y2965D01*
Y2964D01*
Y2964D01*
X1002Y2962D01*
Y2962D01*
X1002Y2961D01*
X1002Y2961D01*
X1002Y2960D01*
X1003Y2959D01*
X1004Y2958D01*
X1004D01*
X1004Y2959D01*
X1006Y2959D01*
X1007Y2961D01*
X1009Y2962D01*
X1001Y2967D01*
D02*
G37*
G36*
X1021Y2947D02*
X1021D01*
X1021Y2947D01*
X1020Y2946D01*
X1019Y2945D01*
X1018Y2945D01*
X1017Y2945D01*
X1016Y2944D01*
X1015Y2942D01*
X1014Y2940D01*
Y2940D01*
X1014Y2940D01*
Y2940D01*
X1014D01*
X1014Y2939D01*
X1016Y2938D01*
X1016D01*
X1018Y2938D01*
X1019Y2938D01*
X1022Y2938D01*
X1023D01*
X1024Y2938D01*
X1025Y2938D01*
Y2939D01*
Y2939D01*
X1026Y2940D01*
X1026Y2941D01*
Y2941D01*
Y2942D01*
Y2942D01*
Y2942D01*
X1025Y2943D01*
Y2943D01*
X1025D01*
Y2944D01*
Y2944D01*
X1024Y2944D01*
X1023Y2945D01*
X1022Y2947D01*
X1021Y2947D01*
D02*
G37*
G36*
X985Y2976D02*
Y2976D01*
X985Y2975D01*
X984Y2973D01*
X982Y2970D01*
X982Y2970D01*
X981Y2969D01*
X981Y2968D01*
X980Y2966D01*
Y2966D01*
Y2965D01*
X981Y2963D01*
X981Y2962D01*
X981Y2960D01*
Y2960D01*
X982Y2959D01*
X982Y2958D01*
X982Y2957D01*
X983Y2954D01*
Y2954D01*
Y2953D01*
Y2952D01*
X983Y2951D01*
X982Y2949D01*
Y2947D01*
Y2946D01*
X983Y2946D01*
X983D01*
X983Y2945D01*
X984Y2945D01*
X984Y2945D01*
X985D01*
X985Y2944D01*
X986Y2944D01*
X986Y2943D01*
X986Y2943D01*
X988Y2942D01*
X988D01*
X988Y2942D01*
X989Y2941D01*
X990Y2942D01*
X990Y2943D01*
X991Y2945D01*
X993Y2947D01*
X992Y2947D01*
X992Y2949D01*
X991Y2950D01*
X990Y2952D01*
Y2953D01*
X989Y2953D01*
X989Y2954D01*
X989D01*
Y2954D01*
Y2954D01*
X988Y2955D01*
Y2956D01*
Y2956D01*
X988Y2957D01*
X988Y2959D01*
Y2961D01*
Y2961D01*
Y2962D01*
Y2963D01*
Y2963D01*
Y2964D01*
Y2966D01*
Y2966D01*
Y2968D01*
Y2969D01*
X988Y2970D01*
Y2970D01*
X989Y2971D01*
X990Y2973D01*
X985Y2976D01*
D02*
G37*
G36*
X993Y2972D02*
Y2971D01*
X992Y2971D01*
X991Y2969D01*
Y2969D01*
Y2968D01*
X991Y2967D01*
Y2966D01*
Y2966D01*
Y2965D01*
Y2963D01*
Y2962D01*
Y2961D01*
Y2961D01*
Y2960D01*
Y2959D01*
X991Y2958D01*
X992Y2956D01*
Y2956D01*
X992Y2955D01*
X992Y2954D01*
X993Y2954D01*
Y2954D01*
X993Y2953D01*
X994Y2951D01*
X995Y2949D01*
Y2950D01*
X995Y2950D01*
X995Y2950D01*
X996Y2951D01*
X996Y2951D01*
X998Y2952D01*
X999Y2954D01*
X1001Y2956D01*
X1001Y2956D01*
X1001Y2957D01*
X1000Y2958D01*
X999Y2960D01*
X999Y2961D01*
Y2961D01*
X998Y2962D01*
X998Y2963D01*
X998Y2964D01*
Y2965D01*
Y2966D01*
X998Y2967D01*
X998Y2968D01*
X993Y2972D01*
D02*
G37*
%LPD*%
D10*
X2072Y3157D02*
G03*
X2072Y3157I-5J0D01*
G01*
X908Y3088D02*
G03*
X908Y3088I-5J0D01*
G01*
X1757Y2417D02*
G03*
X1757Y2417I-5J0D01*
G01*
X988Y2411D02*
G03*
X988Y2411I-5J0D01*
G01*
X973Y3120D02*
G03*
X973Y3120I-5J0D01*
G01*
X1149Y3521D02*
G03*
X1149Y3521I-5J0D01*
G01*
X1164Y2909D02*
G03*
X1164Y2909I-5J0D01*
G01*
X1745Y3007D02*
G03*
X1745Y3007I-5J0D01*
G01*
X1937Y3110D02*
G03*
X1937Y3110I-5J0D01*
G01*
X1960Y2813D02*
G03*
X1960Y2813I-5J0D01*
G01*
X2044Y2205D02*
G03*
X2044Y2205I-5J0D01*
G01*
X1930Y2049D02*
G03*
X1930Y2049I-5J0D01*
G01*
X1882Y1838D02*
G03*
X1882Y1838I-5J0D01*
G01*
D11*
X2449Y3746D02*
G03*
X2449Y3745I0J-0D01*
G01*
X2449Y3757D02*
G03*
X2437Y3745I0J-12D01*
G01*
X2104Y3686D02*
G03*
X2089Y3699I-15J-2D01*
G01*
X2057D02*
G03*
X2042Y3686I0J-15D01*
G01*
X2340D02*
G03*
X2325Y3699I-15J-2D01*
G01*
X2293D02*
G03*
X2278Y3686I0J-15D01*
G01*
X1933Y3745D02*
G03*
X1933Y3746I-0J0D01*
G01*
X1945Y3745D02*
G03*
X1933Y3757I-12J0D01*
G01*
X1212Y182D02*
G03*
X1153Y181I-29J-72D01*
G01*
Y39D02*
G03*
X1212Y38I30J71D01*
G01*
X307Y2602D02*
G03*
X338Y2599I16J11D01*
G01*
X306Y2603D02*
G03*
X274Y2600I-15J-13D01*
G01*
X559Y2415D02*
G03*
X323Y2415I-118J154D01*
G01*
X573Y2535D02*
G03*
X542Y2532I-15J-13D01*
G01*
X574Y2534D02*
G03*
X605Y2531I16J11D01*
G01*
X2020Y2515D02*
G03*
X2210Y2515I95J47D01*
G01*
X2015Y2500D02*
G03*
X2215Y2500I100J62D01*
G01*
Y2624D02*
G03*
X2015Y2624I-100J-62D01*
G01*
X2210Y2609D02*
G03*
X2020Y2609I-95J-47D01*
G01*
X2530Y1397D02*
G03*
X2530Y1397I-364J0D01*
G01*
X2528Y560D02*
G03*
X2528Y560I-364J0D01*
G01*
X2214Y3229D02*
X2258D01*
X2308D02*
X2352D01*
X2119D02*
X2163D01*
X1798Y3284D02*
Y3296D01*
Y3158D02*
Y3170D01*
X2046Y3158D02*
Y3170D01*
Y3284D02*
Y3296D01*
X1798D02*
X2046D01*
X1798Y3158D02*
X2046D01*
X1800Y3392D02*
X1846D01*
X2374Y3364D02*
X2478D01*
X1904D02*
Y3462D01*
X1923D01*
X1931Y3454D01*
Y3364D02*
Y3454D01*
X2478Y3364D02*
Y3462D01*
X2459D02*
X2478D01*
X2451Y3454D02*
X2459Y3462D01*
X2451Y3364D02*
Y3454D01*
X2449Y3364D02*
Y3591D01*
X2449Y3746D02*
X2465D01*
Y3757D01*
X2449D02*
X2465D01*
X2423Y3745D02*
Y3757D01*
X2250D02*
X2423D01*
X2250Y3745D02*
Y3757D01*
X2132Y3745D02*
Y3757D01*
X1959D02*
X2132D01*
X1959Y3745D02*
Y3757D01*
X1933Y3745D02*
X2449D01*
X2240Y3505D02*
X2378D01*
X2240D02*
X2250Y3733D01*
X2368D01*
X2378Y3505D01*
X2004D02*
X2142D01*
X2004D02*
X2014Y3733D01*
X2132D01*
X2142Y3505D01*
X2104Y3686D02*
X2126Y3505D01*
X2057Y3699D02*
X2089D01*
X2020Y3505D02*
X2042Y3686D01*
X2340D02*
X2362Y3505D01*
X2293Y3699D02*
X2325D01*
X2256Y3505D02*
X2278Y3686D01*
X2274Y3409D02*
X2310D01*
X2274Y3381D02*
Y3409D01*
X2108Y3381D02*
Y3409D01*
X2072D02*
X2108D01*
X1933Y3364D02*
Y3591D01*
X1917Y3746D02*
X1933D01*
X1917D02*
Y3757D01*
X1933D01*
X2250Y3722D02*
X2369D01*
X2013D02*
X2132D01*
X2449Y3723D02*
Y3745D01*
X1933Y3723D02*
Y3745D01*
X1904Y3364D02*
X2008D01*
X1112Y-30D02*
Y-0D01*
X1086Y40D02*
Y180D01*
X1067Y-30D02*
Y-0D01*
X578Y220D02*
X1128D01*
X659Y180D02*
X760D01*
X822D02*
X923D01*
X985D02*
X1086D01*
X527Y169D02*
X578D01*
X949Y-30D02*
Y-0D01*
X946Y79D02*
Y141D01*
Y79D02*
X985Y40D01*
X923D02*
Y180D01*
X946Y141D02*
X985Y180D01*
X904Y-30D02*
Y-0D01*
X527Y51D02*
X578D01*
X985Y40D02*
X1086D01*
X822D02*
X923D01*
X659D02*
X760D01*
X783Y79D02*
X822Y40D01*
X578Y-0D02*
X1128D01*
X786Y-30D02*
Y-0D01*
X783Y79D02*
Y141D01*
X822Y180D01*
X760Y40D02*
Y180D01*
X578Y-30D02*
X623D01*
X741D02*
X786D01*
X904D02*
X949D01*
X1067D02*
X1112D01*
X741D02*
Y-0D01*
X620Y79D02*
X659Y40D01*
X620Y141D02*
X659Y180D01*
X623Y-30D02*
Y-0D01*
X620Y79D02*
Y141D01*
X578Y-30D02*
Y220D01*
X527Y51D02*
Y169D01*
X1128Y153D02*
Y220D01*
Y-0D02*
Y67D01*
X1153Y39D02*
Y45D01*
Y175D02*
Y181D01*
X112Y2783D02*
Y3094D01*
Y2783D02*
X673D01*
X860Y2970D01*
Y3094D01*
X112Y3220D02*
Y3531D01*
X673D01*
X860Y3344D01*
Y3220D02*
Y3344D01*
X323Y2415D02*
X559D01*
X768Y2502D02*
X850D01*
X768Y2636D02*
X850D01*
X1585Y2539D02*
X1731D01*
X1585Y2421D02*
X1731D01*
X1105Y2432D02*
Y2578D01*
X987Y2432D02*
Y2578D01*
X1042Y2690D02*
Y2734D01*
Y2810D02*
Y2856D01*
X1090Y3141D02*
Y3287D01*
X972Y3141D02*
Y3287D01*
X1031Y3402D02*
Y3448D01*
X1032Y3534D02*
Y3578D01*
X1233Y3664D02*
Y3708D01*
X1266Y3184D02*
X1396D01*
X1266D02*
Y3578D01*
X1396D01*
X1281Y2572D02*
X1411D01*
X1281D02*
Y2966D01*
X1411D01*
X1247Y3021D02*
Y3065D01*
X1573Y3129D02*
X1719D01*
X1573Y3011D02*
X1719D01*
X1825Y2960D02*
Y3066D01*
X1923Y2960D02*
Y3066D01*
X1825D02*
X1923D01*
X1825Y3058D02*
X1923D01*
X1825Y3050D02*
X1923D01*
X2180Y2719D02*
X2261Y2639D01*
X2050Y2719D02*
X2180D01*
X1969Y2639D02*
X2050Y2719D01*
X1969Y2485D02*
X2050Y2405D01*
X2180D01*
X2261Y2485D01*
X2148Y2874D02*
X2171D01*
Y3016D01*
X2148D02*
X2171D01*
X1975D02*
X1998D01*
X1975Y2874D02*
Y3016D01*
Y2874D02*
X1998D01*
X2319Y2952D02*
X2363D01*
X2218Y2953D02*
X2262D01*
X2358Y2780D02*
Y2824D01*
X2279Y2780D02*
Y2824D01*
X2414Y2670D02*
Y2716D01*
Y2568D02*
Y2614D01*
X1889Y2312D02*
X1995D01*
X1889Y2214D02*
X1995D01*
Y2312D01*
X1987Y2214D02*
Y2312D01*
X1979Y2214D02*
Y2312D01*
X2109Y2084D02*
Y2258D01*
X2239Y2084D02*
Y2258D01*
X2297Y2084D02*
Y2258D01*
X2427Y2084D02*
Y2258D01*
X2306Y1889D02*
X2352D01*
X2188Y1888D02*
X2232D01*
X2072Y1887D02*
X2116D01*
X1937Y2092D02*
X2051D01*
X1937D02*
Y2116D01*
X2051D01*
Y2092D02*
Y2116D01*
X1834Y2098D02*
X1878D01*
X2005Y1881D02*
Y1905D01*
X1891D02*
X2005D01*
X1891Y1881D02*
Y1905D01*
Y1881D02*
X2005D01*
X2365Y1397D02*
X2404D01*
X2385Y1377D02*
Y1417D01*
X2251Y957D02*
Y1001D01*
X2101Y957D02*
Y1001D01*
X1926Y560D02*
X1965D01*
X1945Y540D02*
Y580D01*
X37Y302D02*
Y2388D01*
X1769D01*
Y302D02*
Y2388D01*
X37Y302D02*
X1769D01*
X41Y2459D02*
X67D01*
X54D01*
Y2420D01*
X80D02*
Y2459D01*
X100D01*
X107Y2453D01*
Y2440D01*
X100Y2433D01*
X80D01*
X93D02*
X107Y2420D01*
X120D02*
X133D01*
X126D01*
Y2459D01*
X120Y2453D01*
X1915Y2177D02*
X1941D01*
X1928D01*
Y2138D01*
X1954D02*
X1967D01*
X1961D01*
Y2177D01*
X1954Y2171D01*
X2395Y2926D02*
Y2965D01*
X2415D01*
X2421Y2959D01*
Y2946D01*
X2415Y2939D01*
X2395D01*
X2408D02*
X2421Y2926D01*
X2434D02*
X2447D01*
X2441D01*
Y2965D01*
X2434Y2959D01*
X2493Y2965D02*
X2480Y2959D01*
X2467Y2946D01*
Y2933D01*
X2474Y2926D01*
X2487D01*
X2493Y2933D01*
Y2939D01*
X2487Y2946D01*
X2467D01*
X1869Y959D02*
Y998D01*
X1889D01*
X1895Y992D01*
Y979D01*
X1889Y972D01*
X1869D01*
X1882D02*
X1895Y959D01*
X1908D02*
X1921D01*
X1915D01*
Y998D01*
X1908Y992D01*
X1967Y998D02*
X1941D01*
Y979D01*
X1954Y985D01*
X1961D01*
X1967Y979D01*
Y966D01*
X1961Y959D01*
X1948D01*
X1941Y966D01*
X2049Y1969D02*
Y2008D01*
X2069D01*
X2075Y2002D01*
Y1989D01*
X2069Y1982D01*
X2049D01*
X2062D02*
X2075Y1969D01*
X2088D02*
X2101D01*
X2095D01*
Y2008D01*
X2088Y2002D01*
X2141Y1969D02*
Y2008D01*
X2121Y1989D01*
X2147D01*
X2194Y3110D02*
Y3149D01*
X2214D01*
X2220Y3143D01*
Y3130D01*
X2214Y3123D01*
X2194D01*
X2207D02*
X2220Y3110D01*
X2233D02*
X2246D01*
X2240D01*
Y3149D01*
X2233Y3143D01*
X2266D02*
X2273Y3149D01*
X2286D01*
X2292Y3143D01*
Y3136D01*
X2286Y3130D01*
X2279D01*
X2286D01*
X2292Y3123D01*
Y3117D01*
X2286Y3110D01*
X2273D01*
X2266Y3117D01*
X2206Y3037D02*
Y3076D01*
X2226D01*
X2232Y3070D01*
Y3057D01*
X2226Y3050D01*
X2206D01*
X2219D02*
X2232Y3037D01*
X2245D02*
X2258D01*
X2252D01*
Y3076D01*
X2245Y3070D01*
X2304Y3037D02*
X2278D01*
X2304Y3063D01*
Y3070D01*
X2298Y3076D01*
X2285D01*
X2278Y3070D01*
X2414Y3204D02*
X2375D01*
Y3224D01*
X2381Y3230D01*
X2394D01*
X2401Y3224D01*
Y3204D01*
Y3217D02*
X2414Y3230D01*
Y3243D02*
Y3256D01*
Y3250D01*
X2375D01*
X2381Y3243D01*
X2414Y3276D02*
Y3289D01*
Y3283D01*
X2375D01*
X2381Y3276D01*
X1873Y1924D02*
X1834D01*
Y1944D01*
X1840Y1950D01*
X1853D01*
X1860Y1944D01*
Y1924D01*
Y1937D02*
X1873Y1950D01*
Y1963D02*
Y1976D01*
Y1970D01*
X1834D01*
X1840Y1963D01*
Y1996D02*
X1834Y2003D01*
Y2016D01*
X1840Y2022D01*
X1866D01*
X1873Y2016D01*
Y2003D01*
X1866Y1996D01*
X1840D01*
X2337Y960D02*
Y999D01*
X2357D01*
X2363Y993D01*
Y980D01*
X2357Y973D01*
X2337D01*
X2350D02*
X2363Y960D01*
X2376Y967D02*
X2383Y960D01*
X2396D01*
X2403Y967D01*
Y993D01*
X2396Y999D01*
X2383D01*
X2376Y993D01*
Y986D01*
X2383Y980D01*
X2403D01*
X2173Y1964D02*
Y2003D01*
X2193D01*
X2199Y1997D01*
Y1984D01*
X2193Y1977D01*
X2173D01*
X2186D02*
X2199Y1964D01*
X2212Y1997D02*
X2219Y2003D01*
X2232D01*
X2239Y1997D01*
Y1990D01*
X2232Y1984D01*
X2239Y1977D01*
Y1971D01*
X2232Y1964D01*
X2219D01*
X2212Y1971D01*
Y1977D01*
X2219Y1984D01*
X2212Y1990D01*
Y1997D01*
X2219Y1984D02*
X2232D01*
X2331Y2336D02*
Y2375D01*
X2351D01*
X2357Y2369D01*
Y2356D01*
X2351Y2349D01*
X2331D01*
X2344D02*
X2357Y2336D01*
X2370Y2375D02*
X2397D01*
Y2369D01*
X2370Y2343D01*
Y2336D01*
X2103Y3111D02*
Y3150D01*
X2123D01*
X2129Y3144D01*
Y3131D01*
X2123Y3124D01*
X2103D01*
X2116D02*
X2129Y3111D01*
X2169Y3150D02*
X2155Y3144D01*
X2142Y3131D01*
Y3118D01*
X2149Y3111D01*
X2162D01*
X2169Y3118D01*
Y3124D01*
X2162Y3131D01*
X2142D01*
X2145Y2339D02*
Y2378D01*
X2165D01*
X2171Y2372D01*
Y2359D01*
X2165Y2352D01*
X2145D01*
X2158D02*
X2171Y2339D01*
X2211Y2378D02*
X2184D01*
Y2359D01*
X2197Y2365D01*
X2204D01*
X2211Y2359D01*
Y2346D01*
X2204Y2339D01*
X2191D01*
X2184Y2346D01*
X894Y2691D02*
Y2730D01*
X914D01*
X920Y2724D01*
Y2711D01*
X914Y2704D01*
X894D01*
X907D02*
X920Y2691D01*
X953D02*
Y2730D01*
X933Y2711D01*
X960D01*
X1211Y3085D02*
Y3124D01*
X1231D01*
X1237Y3118D01*
Y3105D01*
X1231Y3098D01*
X1211D01*
X1224D02*
X1237Y3085D01*
X1250Y3118D02*
X1257Y3124D01*
X1270D01*
X1277Y3118D01*
Y3111D01*
X1270Y3105D01*
X1263D01*
X1270D01*
X1277Y3098D01*
Y3092D01*
X1270Y3085D01*
X1257D01*
X1250Y3092D01*
X886Y3545D02*
Y3584D01*
X905D01*
X912Y3578D01*
Y3565D01*
X905Y3558D01*
X886D01*
X899D02*
X912Y3545D01*
X951D02*
X925D01*
X951Y3571D01*
Y3578D01*
X945Y3584D01*
X932D01*
X925Y3578D01*
X1209Y3605D02*
Y3644D01*
X1229D01*
X1235Y3638D01*
Y3625D01*
X1229Y3618D01*
X1209D01*
X1222D02*
X1235Y3605D01*
X1248D02*
X1261D01*
X1255D01*
Y3644D01*
X1248Y3638D01*
X1851Y2583D02*
Y2544D01*
X1877D01*
X1890D02*
X1903D01*
X1897D01*
Y2583D01*
X1890Y2577D01*
X1896Y1805D02*
X1909D01*
X1903D01*
Y1766D01*
X1896D01*
X1909D01*
X1955Y1799D02*
X1948Y1805D01*
X1935D01*
X1929Y1799D01*
Y1773D01*
X1935Y1766D01*
X1948D01*
X1955Y1773D01*
X1988Y1766D02*
Y1805D01*
X1968Y1786D01*
X1994D01*
X1913Y2775D02*
X1926D01*
X1920D01*
Y2736D01*
X1913D01*
X1926D01*
X1972Y2769D02*
X1965Y2775D01*
X1952D01*
X1946Y2769D01*
Y2743D01*
X1952Y2736D01*
X1965D01*
X1972Y2743D01*
X1985Y2769D02*
X1992Y2775D01*
X2005D01*
X2011Y2769D01*
Y2762D01*
X2005Y2756D01*
X1998D01*
X2005D01*
X2011Y2749D01*
Y2743D01*
X2005Y2736D01*
X1992D01*
X1985Y2743D01*
X1324Y3039D02*
X1337D01*
X1331D01*
Y3000D01*
X1324D01*
X1337D01*
X1383Y3033D02*
X1376Y3039D01*
X1363D01*
X1357Y3033D01*
Y3007D01*
X1363Y3000D01*
X1376D01*
X1383Y3007D01*
X1422Y3000D02*
X1396D01*
X1422Y3026D01*
Y3033D01*
X1416Y3039D01*
X1403D01*
X1396Y3033D01*
X1318Y3641D02*
X1331D01*
X1325D01*
Y3602D01*
X1318D01*
X1331D01*
X1377Y3635D02*
X1370Y3641D01*
X1357D01*
X1351Y3635D01*
Y3609D01*
X1357Y3602D01*
X1370D01*
X1377Y3609D01*
X1390Y3602D02*
X1403D01*
X1397D01*
Y3641D01*
X1390Y3635D01*
X813Y2474D02*
X787D01*
Y2455D01*
X800D01*
X787D01*
Y2435D01*
X826D02*
X839D01*
X833D01*
Y2474D01*
X826Y2468D01*
X1908Y2373D02*
Y2334D01*
X1928D01*
X1934Y2341D01*
Y2367D01*
X1928Y2373D01*
X1908D01*
X1947Y2367D02*
X1954Y2373D01*
X1967D01*
X1974Y2367D01*
Y2360D01*
X1967Y2354D01*
X1960D01*
X1967D01*
X1974Y2347D01*
Y2341D01*
X1967Y2334D01*
X1954D01*
X1947Y2341D01*
X1775Y2887D02*
Y2848D01*
X1795D01*
X1801Y2855D01*
Y2881D01*
X1795Y2887D01*
X1775D01*
X1841Y2848D02*
X1814D01*
X1841Y2874D01*
Y2881D01*
X1834Y2887D01*
X1821D01*
X1814Y2881D01*
X217Y2742D02*
Y2703D01*
X237D01*
X243Y2710D01*
Y2736D01*
X237Y2742D01*
X217D01*
X256Y2703D02*
X269D01*
X263D01*
Y2742D01*
X256Y2736D01*
X2438Y889D02*
X2432Y895D01*
X2419D01*
X2412Y889D01*
Y863D01*
X2419Y856D01*
X2432D01*
X2438Y863D01*
X2451Y856D02*
X2464D01*
X2458D01*
Y895D01*
X2451Y889D01*
X2504Y856D02*
Y895D01*
X2484Y876D01*
X2510D01*
X2296Y1992D02*
X2290Y1998D01*
X2277D01*
X2270Y1992D01*
Y1966D01*
X2277Y1959D01*
X2290D01*
X2296Y1966D01*
X2309Y1959D02*
X2322D01*
X2316D01*
Y1998D01*
X2309Y1992D01*
X2342D02*
X2349Y1998D01*
X2362D01*
X2368Y1992D01*
Y1985D01*
X2362Y1979D01*
X2355D01*
X2362D01*
X2368Y1972D01*
Y1966D01*
X2362Y1959D01*
X2349D01*
X2342Y1966D01*
X2454Y1714D02*
X2448Y1720D01*
X2435D01*
X2428Y1714D01*
Y1688D01*
X2435Y1681D01*
X2448D01*
X2454Y1688D01*
X2467Y1681D02*
X2480D01*
X2474D01*
Y1720D01*
X2467Y1714D01*
X2526Y1681D02*
X2500D01*
X2526Y1707D01*
Y1714D01*
X2520Y1720D01*
X2507D01*
X2500Y1714D01*
X2397Y2544D02*
X2391Y2550D01*
X2378D01*
X2371Y2544D01*
Y2518D01*
X2378Y2511D01*
X2391D01*
X2397Y2518D01*
X2410Y2511D02*
X2423D01*
X2417D01*
Y2550D01*
X2410Y2544D01*
X2443Y2511D02*
X2456D01*
X2450D01*
Y2550D01*
X2443Y2544D01*
X2268Y2705D02*
X2262Y2711D01*
X2249D01*
X2242Y2705D01*
Y2679D01*
X2249Y2672D01*
X2262D01*
X2268Y2679D01*
X2281Y2672D02*
X2294D01*
X2288D01*
Y2711D01*
X2281Y2705D01*
X2314D02*
X2321Y2711D01*
X2334D01*
X2340Y2705D01*
Y2679D01*
X2334Y2672D01*
X2321D01*
X2314Y2679D01*
Y2705D01*
X1779Y3130D02*
X1773Y3136D01*
X1760D01*
X1753Y3130D01*
Y3104D01*
X1760Y3097D01*
X1773D01*
X1779Y3104D01*
X1792D02*
X1799Y3097D01*
X1812D01*
X1819Y3104D01*
Y3130D01*
X1812Y3136D01*
X1799D01*
X1792Y3130D01*
Y3123D01*
X1799Y3117D01*
X1819D01*
X1820Y3509D02*
X1814Y3515D01*
X1801D01*
X1794Y3509D01*
Y3483D01*
X1801Y3476D01*
X1814D01*
X1820Y3483D01*
X1833Y3509D02*
X1840Y3515D01*
X1853D01*
X1860Y3509D01*
Y3502D01*
X1853Y3496D01*
X1860Y3489D01*
Y3483D01*
X1853Y3476D01*
X1840D01*
X1833Y3483D01*
Y3489D01*
X1840Y3496D01*
X1833Y3502D01*
Y3509D01*
X1840Y3496D02*
X1853D01*
X916Y2853D02*
X910Y2859D01*
X897D01*
X890Y2853D01*
Y2827D01*
X897Y2820D01*
X910D01*
X916Y2827D01*
X929Y2859D02*
X956D01*
Y2853D01*
X929Y2827D01*
Y2820D01*
X1794Y2492D02*
X1788Y2498D01*
X1775D01*
X1768Y2492D01*
Y2466D01*
X1775Y2459D01*
X1788D01*
X1794Y2466D01*
X1834Y2498D02*
X1820Y2492D01*
X1807Y2479D01*
Y2466D01*
X1814Y2459D01*
X1827D01*
X1834Y2466D01*
Y2472D01*
X1827Y2479D01*
X1807D01*
X1136Y2495D02*
X1130Y2489D01*
Y2476D01*
X1136Y2469D01*
X1162D01*
X1169Y2476D01*
Y2489D01*
X1162Y2495D01*
X1130Y2535D02*
Y2508D01*
X1149D01*
X1143Y2521D01*
Y2528D01*
X1149Y2535D01*
X1162D01*
X1169Y2528D01*
Y2515D01*
X1162Y2508D01*
X914Y3444D02*
X908Y3450D01*
X895D01*
X888Y3444D01*
Y3418D01*
X895Y3411D01*
X908D01*
X914Y3418D01*
X947Y3411D02*
Y3450D01*
X927Y3431D01*
X954D01*
X1506Y3154D02*
X1500Y3160D01*
X1487D01*
X1480Y3154D01*
Y3128D01*
X1487Y3121D01*
X1500D01*
X1506Y3128D01*
X1519Y3154D02*
X1526Y3160D01*
X1539D01*
X1546Y3154D01*
Y3147D01*
X1539Y3141D01*
X1532D01*
X1539D01*
X1546Y3134D01*
Y3128D01*
X1539Y3121D01*
X1526D01*
X1519Y3128D01*
X1140Y3203D02*
X1134Y3197D01*
Y3184D01*
X1140Y3177D01*
X1166D01*
X1173Y3184D01*
Y3197D01*
X1166Y3203D01*
X1173Y3243D02*
Y3216D01*
X1147Y3243D01*
X1140D01*
X1134Y3236D01*
Y3223D01*
X1140Y3216D01*
X55Y3275D02*
X49Y3281D01*
X36D01*
X29Y3275D01*
Y3249D01*
X36Y3242D01*
X49D01*
X55Y3249D01*
X68Y3242D02*
X81D01*
X75D01*
Y3281D01*
X68Y3275D01*
X485Y2668D02*
X432D01*
X445Y2466D02*
X398D01*
X421Y2442D02*
Y2489D01*
X352Y1885D02*
X357Y1879D01*
X366Y1877D01*
X377D01*
X385Y1879D01*
X391Y1885D01*
Y1891D01*
X388Y1896D01*
X385Y1899D01*
X380Y1902D01*
X363Y1907D01*
X357Y1910D01*
X355Y1913D01*
X352Y1919D01*
Y1927D01*
X357Y1933D01*
X366Y1936D01*
X377D01*
X385Y1933D01*
X391Y1927D01*
X302Y1877D02*
X338D01*
Y1936D01*
X302D01*
X338Y1905D02*
X316D01*
X250Y1891D02*
X253Y1885D01*
X258Y1879D01*
X264Y1877D01*
X275D01*
X281Y1879D01*
X286Y1885D01*
X289Y1891D01*
X292Y1899D01*
Y1913D01*
X289Y1922D01*
X286Y1927D01*
X281Y1933D01*
X275Y1936D01*
X264D01*
X258Y1933D01*
X253Y1927D01*
X250Y1922D01*
X233Y1888D02*
X228Y1885D01*
X219Y1877D01*
Y1936D01*
X1560Y1885D02*
X1566Y1879D01*
X1574Y1877D01*
X1586D01*
X1594Y1879D01*
X1600Y1885D01*
Y1891D01*
X1597Y1896D01*
X1594Y1899D01*
X1588Y1902D01*
X1572Y1907D01*
X1566Y1910D01*
X1563Y1913D01*
X1560Y1919D01*
Y1927D01*
X1566Y1933D01*
X1574Y1936D01*
X1586D01*
X1594Y1933D01*
X1600Y1927D01*
X1511Y1877D02*
X1547D01*
Y1936D01*
X1511D01*
X1547Y1905D02*
X1525D01*
X1459Y1891D02*
X1461Y1885D01*
X1467Y1879D01*
X1473Y1877D01*
X1484D01*
X1490Y1879D01*
X1495Y1885D01*
X1498Y1891D01*
X1501Y1899D01*
Y1913D01*
X1498Y1922D01*
X1495Y1927D01*
X1490Y1933D01*
X1484Y1936D01*
X1473D01*
X1467Y1933D01*
X1461Y1927D01*
X1459Y1922D01*
X1439Y1891D02*
Y1888D01*
X1436Y1882D01*
X1434Y1879D01*
X1428Y1877D01*
X1417D01*
X1411Y1879D01*
X1408Y1882D01*
X1405Y1888D01*
Y1893D01*
X1408Y1899D01*
X1414Y1907D01*
X1442Y1936D01*
X1403D01*
X1467Y659D02*
X1442D01*
X1433Y657D01*
X1430Y654D01*
X1427Y648D01*
Y640D01*
X1430Y634D01*
X1433Y631D01*
X1442Y628D01*
X1467D01*
Y688D01*
X1414Y628D02*
Y688D01*
Y628D02*
X1389D01*
X1381Y631D01*
X1378Y634D01*
X1375Y640D01*
Y645D01*
X1378Y651D01*
X1381Y654D01*
X1389Y657D01*
X1414D01*
X1395D02*
X1375Y688D01*
X1359Y643D02*
Y640D01*
X1356Y634D01*
X1353Y631D01*
X1348Y628D01*
X1336D01*
X1331Y631D01*
X1328Y634D01*
X1325Y640D01*
Y645D01*
X1328Y651D01*
X1334Y659D01*
X1362Y688D01*
X1322D01*
X482Y659D02*
X456D01*
X448Y657D01*
X445Y654D01*
X442Y648D01*
Y640D01*
X445Y634D01*
X448Y631D01*
X456Y628D01*
X482D01*
Y688D01*
X429Y628D02*
Y688D01*
Y628D02*
X404D01*
X395Y631D01*
X392Y634D01*
X390Y640D01*
Y645D01*
X392Y651D01*
X395Y654D01*
X404Y657D01*
X429D01*
X409D02*
X390Y688D01*
X376Y640D02*
X371Y637D01*
X362Y628D01*
Y688D01*
X229Y3615D02*
Y3576D01*
X255D01*
X268Y3602D02*
Y3583D01*
X275Y3576D01*
X295D01*
Y3602D01*
X334D02*
X314D01*
X308Y3596D01*
Y3583D01*
X314Y3576D01*
X334D01*
X354Y3602D02*
X367D01*
X373Y3596D01*
Y3576D01*
X354D01*
X347Y3583D01*
X354Y3589D01*
X373D01*
X426Y3615D02*
Y3576D01*
X445D01*
X452Y3583D01*
Y3609D01*
X445Y3615D01*
X426D01*
X472Y3602D02*
X485D01*
X491Y3596D01*
Y3576D01*
X472D01*
X465Y3583D01*
X472Y3589D01*
X491D01*
X505Y3576D02*
X518D01*
X511D01*
Y3602D01*
X505D01*
X564Y3615D02*
Y3576D01*
X544D01*
X537Y3583D01*
Y3596D01*
X544Y3602D01*
X564D01*
X583Y3576D02*
X596D01*
X603Y3583D01*
Y3596D01*
X596Y3602D01*
X583D01*
X577Y3596D01*
Y3583D01*
X583Y3576D01*
X616D02*
Y3602D01*
X636D01*
X642Y3596D01*
Y3576D01*
X675D02*
X662D01*
X655Y3583D01*
Y3596D01*
X662Y3602D01*
X675D01*
X682Y3596D01*
Y3589D01*
X655D01*
D12*
X421Y85D02*
Y145D01*
X461Y85D01*
Y145D01*
X1301Y81D02*
Y141D01*
X1331D01*
X1341Y131D01*
Y111D01*
X1331Y101D01*
X1301D01*
X1361Y141D02*
Y81D01*
Y111D01*
X1401D01*
Y141D01*
Y81D01*
X261Y3698D02*
X251Y3708D01*
X231D01*
X221Y3698D01*
Y3688D01*
X231Y3678D01*
X251D01*
X261Y3668D01*
Y3658D01*
X251Y3648D01*
X231D01*
X221Y3658D01*
X281Y3688D02*
Y3658D01*
X291Y3648D01*
X321D01*
Y3688D01*
X341Y3628D02*
Y3688D01*
X371D01*
X381Y3678D01*
Y3658D01*
X371Y3648D01*
X341D01*
X431D02*
X411D01*
X401Y3658D01*
Y3678D01*
X411Y3688D01*
X431D01*
X441Y3678D01*
Y3668D01*
X401D01*
X461Y3688D02*
Y3648D01*
Y3668D01*
X471Y3678D01*
X481Y3688D01*
X491D01*
X561D02*
X531D01*
X521Y3678D01*
Y3658D01*
X531Y3648D01*
X561D01*
X591Y3688D02*
X611D01*
X621Y3678D01*
Y3648D01*
X591D01*
X581Y3658D01*
X591Y3668D01*
X621D01*
X641Y3628D02*
Y3688D01*
X671D01*
X681Y3678D01*
Y3658D01*
X671Y3648D01*
X641D01*
X701D02*
X731D01*
X741Y3658D01*
X731Y3668D01*
X711D01*
X701Y3678D01*
X711Y3688D01*
X741D01*
X821Y3708D02*
Y3658D01*
X831Y3648D01*
X851D01*
X861Y3658D01*
Y3708D01*
X881Y3648D02*
Y3708D01*
X911D01*
X921Y3698D01*
Y3678D01*
X911Y3668D01*
X881D01*
X981Y3698D02*
X971Y3708D01*
X951D01*
X941Y3698D01*
Y3688D01*
X951Y3678D01*
X971D01*
X981Y3668D01*
Y3658D01*
X971Y3648D01*
X951D01*
X941Y3658D01*
X1895Y1506D02*
X1915D01*
X1905D01*
Y1566D01*
X1895Y1556D01*
X1945D02*
X1955Y1566D01*
X1975D01*
X1985Y1556D01*
Y1516D01*
X1975Y1506D01*
X1955D01*
X1945Y1516D01*
Y1556D01*
X2005D02*
X2015Y1566D01*
X2035D01*
X2045Y1556D01*
Y1516D01*
X2035Y1506D01*
X2015D01*
X2005Y1516D01*
Y1556D01*
X2105Y1566D02*
X2065D01*
Y1536D01*
X2085D01*
X2065D01*
Y1506D01*
X2225D02*
X2185D01*
X2225Y1546D01*
Y1556D01*
X2215Y1566D01*
X2195D01*
X2185Y1556D01*
X2245Y1506D02*
Y1516D01*
X2255D01*
Y1506D01*
X2245D01*
X2295Y1566D02*
X2335D01*
Y1556D01*
X2295Y1516D01*
Y1506D01*
X2355Y1566D02*
Y1526D01*
X2375Y1506D01*
X2395Y1526D01*
Y1566D01*
X1899Y661D02*
X1919D01*
X1909D01*
Y721D01*
X1899Y711D01*
X1949D02*
X1959Y721D01*
X1979D01*
X1989Y711D01*
Y671D01*
X1979Y661D01*
X1959D01*
X1949Y671D01*
Y711D01*
X2009D02*
X2019Y721D01*
X2039D01*
X2049Y711D01*
Y671D01*
X2039Y661D01*
X2019D01*
X2009Y671D01*
Y711D01*
X2109Y721D02*
X2069D01*
Y691D01*
X2089D01*
X2069D01*
Y661D01*
X2229D02*
X2189D01*
X2229Y701D01*
Y711D01*
X2219Y721D01*
X2199D01*
X2189Y711D01*
X2249Y661D02*
Y671D01*
X2259D01*
Y661D01*
X2249D01*
X2299Y721D02*
X2339D01*
Y711D01*
X2299Y671D01*
Y661D01*
X2359Y721D02*
Y681D01*
X2379Y661D01*
X2399Y681D01*
Y721D01*
D13*
X835Y-40D02*
X833D01*
X829Y-38D01*
X827Y-36D01*
X825Y-32D01*
Y-25D01*
X827Y-21D01*
X829Y-19D01*
X833Y-17D01*
X836D01*
X840Y-19D01*
X846Y-23D01*
X865Y-42D01*
Y-15D01*
X673Y-35D02*
X671Y-31D01*
X665Y-25D01*
X705D01*
X991Y-39D02*
Y-18D01*
X1006Y-30D01*
Y-24D01*
X1008Y-20D01*
X1010Y-18D01*
X1016Y-16D01*
X1020D01*
X1025Y-18D01*
X1029Y-22D01*
X1031Y-28D01*
Y-33D01*
X1029Y-39D01*
X1027Y-41D01*
X1023Y-43D01*
D14*
X2450Y2776D02*
X2430D01*
Y2786D01*
X2434Y2789D01*
X2440D01*
X2443Y2786D01*
Y2776D01*
X2430Y2796D02*
X2450D01*
X2443Y2802D01*
X2450Y2809D01*
X2430D01*
X2450Y2815D02*
X2430D01*
X2437Y2822D01*
X2430Y2828D01*
X2450D01*
X2209Y2780D02*
X2189D01*
Y2790D01*
X2193Y2793D01*
X2199D01*
X2202Y2790D01*
Y2780D01*
X2193Y2813D02*
X2189Y2810D01*
Y2803D01*
X2193Y2800D01*
X2196D01*
X2199Y2803D01*
Y2810D01*
X2202Y2813D01*
X2206D01*
X2209Y2810D01*
Y2803D01*
X2206Y2800D01*
X2209Y2819D02*
X2189D01*
X2196Y2826D01*
X2189Y2832D01*
X2209D01*
X2265Y2842D02*
Y2862D01*
X2275D01*
X2278Y2858D01*
Y2852D01*
X2275Y2849D01*
X2265D01*
X2285Y2862D02*
Y2842D01*
X2291Y2849D01*
X2298Y2842D01*
Y2862D01*
X2304Y2842D02*
Y2862D01*
X2314D01*
X2317Y2858D01*
Y2852D01*
X2314Y2849D01*
X2304D01*
X2311D02*
X2317Y2842D01*
X2344D02*
Y2862D01*
X2350Y2855D01*
X2357Y2862D01*
Y2842D01*
X2367D02*
X2373D01*
X2377Y2845D01*
Y2852D01*
X2373Y2855D01*
X2367D01*
X2363Y2852D01*
Y2845D01*
X2367Y2842D01*
X2396Y2862D02*
Y2842D01*
X2386D01*
X2383Y2845D01*
Y2852D01*
X2386Y2855D01*
X2396D01*
X2413Y2842D02*
X2406D01*
X2403Y2845D01*
Y2852D01*
X2406Y2855D01*
X2413D01*
X2416Y2852D01*
Y2849D01*
X2403D01*
%TF.MD5,c1312e1663ffb80fcf61fab3cdb70147*%
M02*
