G04 Layer_Color=32768*
%FSAX25Y25*%
%MOIN*%
G70*
G01*
G75*
%ADD81C,0.00197*%
D81*
X0205578Y0383300D02*
G03*
X0205578Y0383300I-0001378J0000000D01*
G01*
X0204478Y0442500D02*
G03*
X0204478Y0442500I-0001378J0000000D01*
G01*
X0245098Y0438100D02*
G03*
X0245098Y0438100I-0001378J0000000D01*
G01*
X0246598Y0376900D02*
G03*
X0246598Y0376900I-0001378J0000000D01*
G01*
X0288778Y0401300D02*
G03*
X0288778Y0401300I-0001378J0000000D01*
G01*
X0308678Y0394500D02*
G03*
X0308678Y0394500I-0001378J0000000D01*
G01*
X0295579Y0326300D02*
G03*
X0295579Y0326300I-0001378J0000000D01*
G01*
X0300778Y0310400D02*
G03*
X0300778Y0310400I-0001378J0000000D01*
G01*
X0319860Y0416010D02*
X0327340D01*
X0319860Y0429790D02*
X0327340D01*
X0319860Y0416010D02*
Y0429790D01*
X0327340Y0416010D02*
Y0429790D01*
X0323600Y0421719D02*
Y0424081D01*
X0322419Y0422900D02*
X0324781D01*
X0329260Y0416010D02*
X0336740D01*
X0329260Y0429790D02*
X0336740D01*
X0329260Y0416010D02*
Y0429790D01*
X0336740Y0416010D02*
Y0429790D01*
X0333000Y0421719D02*
Y0424081D01*
X0331819Y0422900D02*
X0334181D01*
X0310360Y0416010D02*
X0317840D01*
X0310360Y0429790D02*
X0317840D01*
X0310360Y0416010D02*
Y0429790D01*
X0317840Y0416010D02*
Y0429790D01*
X0314100Y0421719D02*
Y0424081D01*
X0312919Y0422900D02*
X0315281D01*
X0292200Y0421519D02*
Y0423881D01*
X0291019Y0422700D02*
X0293381D01*
X0276846Y0430574D02*
X0307554D01*
X0276846Y0414826D02*
X0307554D01*
X0276846D02*
Y0430574D01*
X0307554Y0414826D02*
Y0430574D01*
X0278560Y0432507D02*
X0286040D01*
X0278560D02*
Y0445893D01*
X0286040Y0432507D02*
Y0445893D01*
X0282300Y0438019D02*
Y0440381D01*
X0281119Y0439200D02*
X0283481D01*
X0278560Y0445893D02*
X0286040D01*
X0103915Y0455464D02*
X0193285D01*
X0103915Y0375936D02*
Y0455464D01*
Y0375936D02*
X0193285D01*
Y0455464D01*
X0168695Y0349203D02*
Y0364597D01*
X0193105Y0349203D02*
Y0364597D01*
X0168695D02*
X0193105D01*
X0168695Y0349203D02*
X0193105D01*
X0265800Y0346819D02*
Y0349181D01*
X0264619Y0348000D02*
X0266981D01*
X0255564Y0354890D02*
X0276036D01*
X0255564Y0341110D02*
X0276036D01*
X0255564D02*
Y0354890D01*
X0276036Y0341110D02*
Y0354890D01*
X0203419Y0350500D02*
X0205781D01*
X0204600Y0349319D02*
Y0351681D01*
X0211490Y0340264D02*
Y0360736D01*
X0197710Y0340264D02*
Y0360736D01*
X0211490D01*
X0197710Y0340264D02*
X0211490D01*
X0197310Y0367460D02*
Y0374940D01*
X0211090Y0367460D02*
Y0374940D01*
X0197310D02*
X0211090D01*
X0197310Y0367460D02*
X0211090D01*
X0203019Y0371200D02*
X0205381D01*
X0204200Y0370019D02*
Y0372381D01*
X0202232Y0383300D02*
X0206169D01*
X0204200Y0381331D02*
Y0385268D01*
X0197310Y0379363D02*
Y0387237D01*
X0211090D01*
Y0379363D02*
Y0387237D01*
X0197310Y0379363D02*
X0211090D01*
X0201919Y0421400D02*
X0204281D01*
X0203100Y0420219D02*
Y0422581D01*
X0209990Y0411164D02*
Y0431636D01*
X0196210Y0411164D02*
Y0431636D01*
X0209990D01*
X0196210Y0411164D02*
X0209990D01*
X0201132Y0442500D02*
X0205068D01*
X0203100Y0440531D02*
Y0444468D01*
X0196210Y0438563D02*
Y0446437D01*
X0209990D01*
Y0438563D02*
Y0446437D01*
X0196210Y0438563D02*
X0209990D01*
X0196310Y0451860D02*
Y0459340D01*
X0210090Y0451860D02*
Y0459340D01*
X0196310D02*
X0210090D01*
X0196310Y0451860D02*
X0210090D01*
X0202019Y0455600D02*
X0204381D01*
X0203200Y0454419D02*
Y0456781D01*
X0216410Y0464860D02*
Y0472340D01*
X0230190Y0464860D02*
Y0472340D01*
X0216410D02*
X0230190D01*
X0216410Y0464860D02*
X0230190D01*
X0222119Y0468600D02*
X0224481D01*
X0223300Y0467419D02*
Y0469781D01*
X0212421Y0416840D02*
X0275020D01*
Y0459360D01*
X0212421D02*
X0275020D01*
X0212421Y0416840D02*
Y0459360D01*
X0243721Y0436131D02*
Y0440068D01*
X0241752Y0438100D02*
X0245689D01*
X0213921Y0355640D02*
X0276520D01*
Y0398160D01*
X0213921D02*
X0276520D01*
X0213921Y0355640D02*
Y0398160D01*
X0245220Y0374932D02*
Y0378869D01*
X0243252Y0376900D02*
X0247189D01*
X0217810Y0400560D02*
Y0408040D01*
X0231590Y0400560D02*
Y0408040D01*
X0217810D02*
X0231590D01*
X0217810Y0400560D02*
X0231590D01*
X0223519Y0404300D02*
X0225881D01*
X0224700Y0403119D02*
Y0405481D01*
X0264600Y0405819D02*
Y0408181D01*
X0263419Y0407000D02*
X0265781D01*
X0254364Y0413890D02*
X0274836D01*
X0254364Y0400110D02*
X0274836D01*
X0254364D02*
Y0413890D01*
X0274836Y0400110D02*
Y0413890D01*
X0281494Y0390040D02*
Y0412560D01*
Y0390040D02*
X0293305D01*
Y0412560D01*
X0281494D02*
X0293305D01*
X0285432Y0401300D02*
X0289369D01*
X0287400Y0399331D02*
Y0403268D01*
X0331776Y0339468D02*
Y0372932D01*
X0291224D02*
X0331776D01*
X0291224Y0339468D02*
Y0372932D01*
Y0339468D02*
X0331776D01*
X0318324Y0379146D02*
Y0409854D01*
X0296276D02*
X0318324D01*
X0296276Y0379146D02*
Y0409854D01*
Y0379146D02*
X0318324D01*
X0305331Y0394500D02*
X0309268D01*
X0307300Y0392531D02*
Y0396468D01*
X0330360Y0402090D02*
X0337840D01*
X0330360Y0388310D02*
X0337840D01*
Y0402090D01*
X0330360Y0388310D02*
Y0402090D01*
X0334100Y0394019D02*
Y0396381D01*
X0332919Y0395200D02*
X0335281D01*
X0320260Y0388410D02*
X0327740D01*
X0320260Y0402190D02*
X0327740D01*
X0320260Y0388410D02*
Y0402190D01*
X0327740Y0388410D02*
Y0402190D01*
X0324000Y0394119D02*
Y0396481D01*
X0322819Y0395300D02*
X0325181D01*
X0335763Y0379019D02*
Y0381381D01*
X0334582Y0380200D02*
X0336944D01*
X0328873Y0383940D02*
X0342653D01*
X0328873Y0376460D02*
X0342653D01*
X0328873D02*
Y0383940D01*
X0342653Y0376460D02*
Y0383940D01*
X0327900Y0379019D02*
Y0381381D01*
X0326719Y0380200D02*
X0329081D01*
X0321010Y0383940D02*
X0334790D01*
X0321010Y0376460D02*
X0334790D01*
X0321010D02*
Y0383940D01*
X0334790Y0376460D02*
Y0383940D01*
X0348093Y0365560D02*
Y0373040D01*
X0334707Y0365560D02*
X0348093D01*
X0334707Y0373040D02*
X0348093D01*
X0340219Y0369300D02*
X0342581D01*
X0341400Y0368119D02*
Y0370481D01*
X0334707Y0365560D02*
Y0373040D01*
X0348093Y0355360D02*
Y0362840D01*
X0334707Y0355360D02*
X0348093D01*
X0334707Y0362840D02*
X0348093D01*
X0340219Y0359100D02*
X0342581D01*
X0341400Y0357919D02*
Y0360281D01*
X0334707Y0355360D02*
Y0362840D01*
X0282941Y0332206D02*
X0305461D01*
X0282941Y0320394D02*
Y0332206D01*
Y0320394D02*
X0305461D01*
Y0332206D01*
X0294201Y0324331D02*
Y0328269D01*
X0292232Y0326300D02*
X0296169D01*
X0315431Y0317100D02*
X0319369D01*
X0317400Y0315131D02*
Y0319069D01*
X0309920Y0301746D02*
Y0332454D01*
X0324880Y0301746D02*
Y0332454D01*
X0309920Y0301746D02*
X0324880D01*
X0309920Y0332454D02*
X0324880D01*
X0334231Y0317100D02*
X0338169D01*
X0336200Y0315131D02*
Y0319069D01*
X0328720Y0301746D02*
Y0332454D01*
X0343680Y0301746D02*
Y0332454D01*
X0328720Y0301746D02*
X0343680D01*
X0328720Y0332454D02*
X0343680D01*
X0328963Y0282010D02*
X0336837D01*
X0328963D02*
Y0295790D01*
X0336837D01*
Y0282010D02*
Y0295790D01*
X0332900Y0287719D02*
Y0290081D01*
X0331719Y0288900D02*
X0334081D01*
X0317260Y0281910D02*
X0324740D01*
X0317260Y0295690D02*
X0324740D01*
X0317260Y0281910D02*
Y0295690D01*
X0324740Y0281910D02*
Y0295690D01*
X0321000Y0287619D02*
Y0289981D01*
X0319819Y0288800D02*
X0322181D01*
X0305660Y0295590D02*
X0313140D01*
X0305660Y0281810D02*
X0313140D01*
Y0295590D01*
X0305660Y0281810D02*
Y0295590D01*
X0309400Y0287519D02*
Y0289881D01*
X0308219Y0288700D02*
X0310581D01*
X0299400Y0308432D02*
Y0312368D01*
X0297431Y0310400D02*
X0301368D01*
X0292313Y0302723D02*
X0306487D01*
X0292313D02*
Y0318077D01*
X0306487D01*
Y0302723D02*
Y0318077D01*
X0281860Y0316690D02*
X0289340D01*
X0281860Y0302910D02*
X0289340D01*
Y0316690D01*
X0281860Y0302910D02*
Y0316690D01*
X0285600Y0308619D02*
Y0310981D01*
X0284419Y0309800D02*
X0286781D01*
X0294800Y0287332D02*
Y0291268D01*
X0292831Y0289300D02*
X0296768D01*
X0287910Y0281623D02*
X0301690D01*
X0287910D02*
Y0296977D01*
X0301690D01*
Y0281623D02*
Y0296977D01*
X0318210Y0194160D02*
Y0201640D01*
X0331990Y0194160D02*
Y0201640D01*
X0318210D02*
X0331990D01*
X0318210Y0194160D02*
X0331990D01*
X0323919Y0197900D02*
X0326281D01*
X0325100Y0196719D02*
Y0199081D01*
X0303210Y0194160D02*
Y0201640D01*
X0316990Y0194160D02*
Y0201640D01*
X0303210D02*
X0316990D01*
X0303210Y0194160D02*
X0316990D01*
X0308919Y0197900D02*
X0311281D01*
X0310100Y0196719D02*
Y0199081D01*
M02*
