G04 Layer_Color=255*
%FSAX25Y25*%
%MOIN*%
G70*
G01*
G75*
%ADD11R,0.05512X0.03740*%
%ADD12R,0.09252X0.08858*%
%ADD13R,0.05512X0.04134*%
%ADD14R,0.29528X0.09842*%
%ADD15R,0.05905X0.12598*%
%ADD16R,0.07087X0.08858*%
%ADD17R,0.08858X0.07087*%
%ADD18R,0.03740X0.05512*%
%ADD19R,0.04528X0.05709*%
%ADD20R,0.11811X0.03937*%
%ADD21R,0.33071X0.40551*%
%ADD22R,0.07598X0.03937*%
%ADD23R,0.07874X0.12598*%
%ADD24R,0.10630X0.10630*%
%ADD25R,0.01772X0.05709*%
%ADD26R,0.04134X0.05512*%
%ADD27R,0.03937X0.07598*%
%ADD28R,0.12992X0.04134*%
%ADD29R,0.05709X0.04528*%
%ADD30R,0.02362X0.04134*%
%ADD31R,0.02559X0.04134*%
%ADD42O,0.05118X0.10630*%
%ADD43C,0.06299*%
%ADD44C,0.15748*%
%ADD45C,0.08268*%
%ADD46C,0.01968*%
%ADD47C,0.07087*%
%ADD48R,0.07087X0.07087*%
D11*
X0323600Y0418963D02*
D03*
Y0426837D02*
D03*
X0333000Y0418963D02*
D03*
Y0426837D02*
D03*
X0314100Y0418963D02*
D03*
Y0426837D02*
D03*
X0334100Y0399137D02*
D03*
Y0391263D02*
D03*
X0324000Y0391363D02*
D03*
Y0399237D02*
D03*
X0321000Y0284863D02*
D03*
Y0292737D02*
D03*
X0309400Y0292637D02*
D03*
Y0284763D02*
D03*
X0285600Y0313737D02*
D03*
Y0305863D02*
D03*
D12*
X0282554Y0422700D02*
D03*
X0301846D02*
D03*
D13*
X0282300Y0442743D02*
D03*
Y0435657D02*
D03*
D14*
X0176553Y0415700D02*
D03*
X0120647D02*
D03*
D15*
X0189168Y0356900D02*
D03*
X0172632D02*
D03*
D16*
X0260091Y0348000D02*
D03*
X0271509D02*
D03*
X0258891Y0407000D02*
D03*
X0270309D02*
D03*
D17*
X0204600Y0356209D02*
D03*
Y0344791D02*
D03*
X0203100Y0427109D02*
D03*
Y0415691D02*
D03*
D18*
X0200263Y0371200D02*
D03*
X0208137D02*
D03*
X0199263Y0455600D02*
D03*
X0207137D02*
D03*
X0219363Y0468600D02*
D03*
X0227237D02*
D03*
X0220763Y0404300D02*
D03*
X0228637D02*
D03*
X0331826Y0380200D02*
D03*
X0339700D02*
D03*
X0323963D02*
D03*
X0331837D02*
D03*
X0321163Y0197900D02*
D03*
X0329037D02*
D03*
X0306163D02*
D03*
X0314037D02*
D03*
D19*
X0207743Y0383300D02*
D03*
X0200657D02*
D03*
X0206643Y0442500D02*
D03*
X0199557D02*
D03*
D20*
X0219311Y0448100D02*
D03*
Y0428100D02*
D03*
X0220811Y0386900D02*
D03*
Y0366900D02*
D03*
D21*
X0257500Y0438100D02*
D03*
X0259000Y0376900D02*
D03*
D22*
X0287400Y0410001D02*
D03*
Y0392599D02*
D03*
D23*
X0326854Y0356200D02*
D03*
X0296146D02*
D03*
D24*
X0307300Y0394500D02*
D03*
D25*
X0298343Y0383083D02*
D03*
X0300902D02*
D03*
X0303461D02*
D03*
X0306020D02*
D03*
X0308579D02*
D03*
X0311139D02*
D03*
X0313698D02*
D03*
X0316257D02*
D03*
Y0405917D02*
D03*
X0313698D02*
D03*
X0311139D02*
D03*
X0308579D02*
D03*
X0306020D02*
D03*
X0303461D02*
D03*
X0300902D02*
D03*
X0298343D02*
D03*
D26*
X0337857Y0369300D02*
D03*
X0344943D02*
D03*
X0337857Y0359100D02*
D03*
X0344943D02*
D03*
D27*
X0302902Y0326300D02*
D03*
X0285500D02*
D03*
D28*
X0317400Y0304895D02*
D03*
Y0329305D02*
D03*
X0336200Y0304895D02*
D03*
Y0329305D02*
D03*
D29*
X0332900Y0285357D02*
D03*
Y0292443D02*
D03*
D30*
X0299400Y0314928D02*
D03*
X0303140Y0305872D02*
D03*
X0295660D02*
D03*
D31*
X0291060Y0284772D02*
D03*
X0298540D02*
D03*
X0294800Y0293828D02*
D03*
D42*
X0344294Y0465700D02*
D03*
X0293900D02*
D03*
D43*
X0332876Y0436763D02*
D03*
X0323034D02*
D03*
X0315160D02*
D03*
X0305317D02*
D03*
X0121390Y0303400D02*
D03*
X0141075D02*
D03*
X0259185D02*
D03*
X0239500D02*
D03*
X0219815Y0165605D02*
D03*
X0259185D02*
D03*
X0121390D02*
D03*
X0160760D02*
D03*
D44*
X0346000Y0109800D02*
D03*
X0346063Y0411024D02*
D03*
X0109843Y0109843D02*
D03*
X0109800Y0464200D02*
D03*
D45*
X0169001Y0111000D02*
D03*
X0185300D02*
D03*
X0201599D02*
D03*
D46*
X0219119D02*
D03*
X0116468Y0328006D02*
D03*
X0264106D02*
D03*
X0116468Y0140998D02*
D03*
X0264106D02*
D03*
D47*
X0154100Y0346900D02*
D03*
Y0366900D02*
D03*
X0134100D02*
D03*
Y0346900D02*
D03*
X0301836Y0239700D02*
D03*
X0331164Y0156000D02*
D03*
D48*
X0331364Y0239700D02*
D03*
X0301636Y0156000D02*
D03*
M02*
