G04 Layer_Color=12632256*
%FSAX24Y24*%
%MOIN*%
G70*
G01*
G75*
%ADD39O,0.0512X0.1063*%
%ADD40C,0.0630*%
%ADD41C,0.1575*%
%ADD42C,0.0827*%
%ADD43C,0.0197*%
%ADD44C,0.0709*%
%ADD45R,0.0709X0.0709*%
D39*
X034429Y046570D02*
D03*
X029390D02*
D03*
D40*
X033288Y043676D02*
D03*
X032303D02*
D03*
X031516D02*
D03*
X030532D02*
D03*
X012139Y030340D02*
D03*
X014107D02*
D03*
X025919D02*
D03*
X023950D02*
D03*
X021981Y016560D02*
D03*
X025919D02*
D03*
X012139D02*
D03*
X016076D02*
D03*
D41*
X034600Y010980D02*
D03*
X034606Y041102D02*
D03*
X010984Y010984D02*
D03*
X010980Y046420D02*
D03*
D42*
X016900Y011100D02*
D03*
X018530D02*
D03*
X020160D02*
D03*
D43*
X021912D02*
D03*
X011647Y032801D02*
D03*
X026411D02*
D03*
X011647Y014100D02*
D03*
X026411D02*
D03*
D44*
X015410Y034690D02*
D03*
Y036690D02*
D03*
X013410D02*
D03*
Y034690D02*
D03*
X030184Y023970D02*
D03*
X033116Y015600D02*
D03*
D45*
X033136Y023970D02*
D03*
X030164Y015600D02*
D03*
M02*
