M48
;Layer_Color=9474304
;FILE_FORMAT=2:5
INCH
;TYPE=PLATED
T1F00S00C0.01968
T3F00S00C0.03543
T4F00S00C0.04331
T5F00S00C0.05512
T6F00S00C0.09449
;TYPE=NON_PLATED
T7F00S00C0.12598
T8F00S00C0.13780
%
T01
X0332900Y0274000
Y0279400
X0302900Y0292637
X0300200Y0197800
X0132900Y0393800
X0127300
X0127200Y0399300
X0127100Y0404400
X0132700Y0404500
Y0399300
X0121400Y0399200
Y0404500
X0115600
X0115500Y0399300
Y0393900
X0121300Y0393800
X0121900Y0424800
X0127500Y0424700
X0132700
X0116200Y0424800
X0199500Y0436100
X0199600Y0449400
X0200400Y0377300
X0200200Y0363300
X0247700Y0348000
X0252400
X0251800Y0407000
X0247300
X0282600Y0430200
X0287600Y0387100
X0305900Y0376000
Y0370900
X0323800Y0374300
X0324000Y0387100
X0344943Y0364400
X0351000Y0359100
T03
X0305317Y0436763
X0315160
X0323034
X0332876
T04
X0301636Y0156000
X0331164
X0331364Y0239700
X0301836
X0259185Y0303400
X0239500
X0219815Y0165605
X0259185
X0160760
X0121390
X0121390Y0303400
X0141075
X0134100Y0346900
X0154100
Y0366900
X0134100
T05
X0169001Y0111000
X0185300
X0201599
T06
X0109843Y0109843
X0346000Y0109800
X0109800Y0464200
X0346063Y0411024
T07
X0219119Y0111000
T08
X0116468Y0140998
X0264106
X0116468Y0328006
X0264106
M30
