G04 Layer_Color=16711935*
%FSAX25Y25*%
%MOIN*%
G70*
G01*
G75*
%ADD71O,0.05918X0.11430*%
%ADD72C,0.07099*%
%ADD73C,0.16548*%
%ADD74C,0.09068*%
%ADD75C,0.12598*%
%ADD76C,0.07887*%
%ADD77R,0.07887X0.07887*%
%ADD78C,0.13780*%
%ADD79C,0.04737*%
D71*
X0344294Y0465700D02*
D03*
X0293900D02*
D03*
D72*
X0332876Y0436763D02*
D03*
X0323034D02*
D03*
X0315160D02*
D03*
X0305317D02*
D03*
X0121390Y0303400D02*
D03*
X0141075D02*
D03*
X0259185D02*
D03*
X0239500D02*
D03*
X0219815Y0165605D02*
D03*
X0259185D02*
D03*
X0121390D02*
D03*
X0160760D02*
D03*
D73*
X0346000Y0109800D02*
D03*
X0346063Y0411024D02*
D03*
X0109843Y0109843D02*
D03*
X0109800Y0464200D02*
D03*
D74*
X0169001Y0111000D02*
D03*
X0185300D02*
D03*
X0201599D02*
D03*
D75*
X0219119D02*
D03*
D76*
X0154100Y0346900D02*
D03*
Y0366900D02*
D03*
X0134100D02*
D03*
Y0346900D02*
D03*
X0301836Y0239700D02*
D03*
X0331164Y0156000D02*
D03*
D77*
X0331364Y0239700D02*
D03*
X0301636Y0156000D02*
D03*
D78*
X0116468Y0328006D02*
D03*
X0264106D02*
D03*
X0116468Y0140998D02*
D03*
X0264106D02*
D03*
D79*
X0127300Y0393800D02*
D03*
X0132900D02*
D03*
X0115500Y0393900D02*
D03*
X0121300Y0393800D02*
D03*
X0332900Y0274000D02*
D03*
Y0279400D02*
D03*
X0305900Y0376000D02*
D03*
Y0370900D02*
D03*
X0199600Y0449400D02*
D03*
X0282600Y0430200D02*
D03*
X0323800Y0374300D02*
D03*
X0127500Y0424700D02*
D03*
X0116200Y0424800D02*
D03*
X0132700Y0404500D02*
D03*
X0121400Y0399200D02*
D03*
X0132700Y0424700D02*
D03*
X0121900Y0424800D02*
D03*
X0115500Y0399300D02*
D03*
X0115600Y0404500D02*
D03*
X0127100Y0404400D02*
D03*
X0132700Y0399300D02*
D03*
X0127200D02*
D03*
X0121400Y0404500D02*
D03*
X0344943Y0364400D02*
D03*
X0247700Y0348000D02*
D03*
X0247300Y0407000D02*
D03*
X0199500Y0436100D02*
D03*
X0351000Y0359100D02*
D03*
X0300200Y0197800D02*
D03*
X0252400Y0348000D02*
D03*
X0302900Y0292637D02*
D03*
X0251800Y0407000D02*
D03*
X0200200Y0363300D02*
D03*
X0200400Y0377300D02*
D03*
M02*
