G04 Layer_Color=255*
%FSAX25Y25*%
%MOIN*%
G70*
G01*
G75*
%ADD42O,0.05118X0.10630*%
%ADD43C,0.06299*%
%ADD44C,0.15748*%
%ADD45C,0.08268*%
%ADD46C,0.01968*%
%ADD47C,0.07087*%
%ADD48R,0.07087X0.07087*%
D42*
X0344294Y0465700D02*
D03*
X0293900D02*
D03*
D43*
X0332876Y0436763D02*
D03*
X0323034D02*
D03*
X0315160D02*
D03*
X0305317D02*
D03*
X0121390Y0303400D02*
D03*
X0141075D02*
D03*
X0259185D02*
D03*
X0239500D02*
D03*
X0219815Y0165605D02*
D03*
X0259185D02*
D03*
X0121390D02*
D03*
X0160760D02*
D03*
D44*
X0346000Y0109800D02*
D03*
X0346063Y0411024D02*
D03*
X0109843Y0109843D02*
D03*
X0109800Y0464200D02*
D03*
D45*
X0169001Y0111000D02*
D03*
X0185300D02*
D03*
X0201599D02*
D03*
D46*
X0219119D02*
D03*
X0116468Y0328006D02*
D03*
X0264106D02*
D03*
X0116468Y0140998D02*
D03*
X0264106D02*
D03*
D47*
X0154100Y0346900D02*
D03*
Y0366900D02*
D03*
X0134100D02*
D03*
Y0346900D02*
D03*
X0301836Y0239700D02*
D03*
X0331164Y0156000D02*
D03*
D48*
X0331364Y0239700D02*
D03*
X0301636Y0156000D02*
D03*
M02*
