G04 Layer_Color=128*
%FSAX25Y25*%
%MOIN*%
G70*
G01*
G75*
%ADD85C,0.00200*%
D85*
X0343113Y0465700D02*
X0345475D01*
X0344294Y0464519D02*
Y0466881D01*
X0331105Y0436763D02*
X0334648D01*
X0332876Y0434991D02*
Y0438535D01*
X0321262Y0436763D02*
X0324805D01*
X0323034Y0434991D02*
Y0438535D01*
X0313388Y0436763D02*
X0316932D01*
X0315160Y0434991D02*
Y0438535D01*
X0303546Y0436763D02*
X0307089D01*
X0305317Y0434991D02*
Y0438535D01*
X0292719Y0465700D02*
X0295081D01*
X0293900Y0464519D02*
Y0466881D01*
X0341276Y0109800D02*
X0350724D01*
X0346000Y0105076D02*
Y0114524D01*
X0341339Y0411024D02*
X0350787D01*
X0346063Y0406299D02*
Y0415748D01*
X0105118Y0109843D02*
X0114567D01*
X0109843Y0105118D02*
Y0114567D01*
X0166245Y0111000D02*
X0171757D01*
X0169001Y0108244D02*
Y0113756D01*
X0182544Y0111000D02*
X0188056D01*
X0185300Y0108244D02*
Y0113756D01*
X0212820Y0111000D02*
X0225418D01*
X0219119Y0104701D02*
Y0117299D01*
X0198843Y0111000D02*
X0204355D01*
X0201599Y0108244D02*
Y0113756D01*
X0105076Y0464200D02*
X0114524D01*
X0109800Y0459476D02*
Y0468924D01*
X0151935Y0346900D02*
X0156265D01*
X0154100Y0344735D02*
Y0349065D01*
X0151935Y0366900D02*
X0156265D01*
X0154100Y0364735D02*
Y0369065D01*
X0131935Y0366900D02*
X0136265D01*
X0134100Y0364735D02*
Y0369065D01*
X0131935Y0346900D02*
X0136265D01*
X0134100Y0344735D02*
Y0349065D01*
X0329198Y0239700D02*
X0333529D01*
X0331364Y0237535D02*
Y0241865D01*
X0299671Y0239700D02*
X0304002D01*
X0301836Y0237535D02*
Y0241865D01*
X0299471Y0156000D02*
X0303802D01*
X0301636Y0153835D02*
Y0158165D01*
X0328998Y0156000D02*
X0333329D01*
X0331164Y0153835D02*
Y0158165D01*
X0109579Y0328006D02*
X0123358D01*
X0116468Y0321117D02*
Y0334896D01*
X0257217Y0328006D02*
X0270996D01*
X0264106Y0321117D02*
Y0334896D01*
X0109579Y0140998D02*
X0123358D01*
X0116468Y0134109D02*
Y0147888D01*
X0257217Y0140998D02*
X0270996D01*
X0264106Y0134109D02*
Y0147888D01*
X0119224Y0303400D02*
X0123555D01*
X0121390Y0301235D02*
Y0305565D01*
X0138909Y0303400D02*
X0143240D01*
X0141075Y0301235D02*
Y0305565D01*
X0257020Y0303400D02*
X0261350D01*
X0259185Y0301235D02*
Y0305565D01*
X0237335Y0303400D02*
X0241665D01*
X0239500Y0301235D02*
Y0305565D01*
X0217650Y0165605D02*
X0221980D01*
X0219815Y0163439D02*
Y0167770D01*
X0257020Y0165605D02*
X0261350D01*
X0259185Y0163439D02*
Y0167770D01*
X0119224Y0165605D02*
X0123555D01*
X0121390Y0163439D02*
Y0167770D01*
X0158595Y0165605D02*
X0162925D01*
X0160760Y0163439D02*
Y0167770D01*
X0126316Y0393800D02*
X0128284D01*
X0127300Y0392816D02*
Y0394784D01*
X0131916Y0393800D02*
X0133884D01*
X0132900Y0392816D02*
Y0394784D01*
X0114516Y0393900D02*
X0116484D01*
X0115500Y0392916D02*
Y0394884D01*
X0120316Y0393800D02*
X0122284D01*
X0121300Y0392816D02*
Y0394784D01*
X0331916Y0274000D02*
X0333884D01*
X0332900Y0273016D02*
Y0274984D01*
X0331916Y0279400D02*
X0333884D01*
X0332900Y0278416D02*
Y0280384D01*
X0304916Y0376000D02*
X0306884D01*
X0305900Y0375016D02*
Y0376984D01*
X0304916Y0370900D02*
X0306884D01*
X0305900Y0369916D02*
Y0371884D01*
X0198616Y0449400D02*
X0200584D01*
X0199600Y0448416D02*
Y0450384D01*
X0281616Y0430200D02*
X0283584D01*
X0282600Y0429216D02*
Y0431184D01*
X0286616Y0387100D02*
X0288584D01*
X0287600Y0386116D02*
Y0388084D01*
X0323016Y0387100D02*
X0324984D01*
X0324000Y0386116D02*
Y0388084D01*
X0322816Y0374300D02*
X0324784D01*
X0323800Y0373316D02*
Y0375284D01*
X0126516Y0424700D02*
X0128484D01*
X0127500Y0423716D02*
Y0425684D01*
X0115216Y0424800D02*
X0117184D01*
X0116200Y0423816D02*
Y0425784D01*
X0131716Y0404500D02*
X0133684D01*
X0132700Y0403516D02*
Y0405484D01*
X0120416Y0399200D02*
X0122384D01*
X0121400Y0398216D02*
Y0400184D01*
X0131716Y0424700D02*
X0133684D01*
X0132700Y0423716D02*
Y0425684D01*
X0120916Y0424800D02*
X0122884D01*
X0121900Y0423816D02*
Y0425784D01*
X0114516Y0399300D02*
X0116484D01*
X0115500Y0398316D02*
Y0400284D01*
X0114616Y0404500D02*
X0116584D01*
X0115600Y0403516D02*
Y0405484D01*
X0126116Y0404400D02*
X0128084D01*
X0127100Y0403416D02*
Y0405384D01*
X0131716Y0399300D02*
X0133684D01*
X0132700Y0398316D02*
Y0400284D01*
X0126216Y0399300D02*
X0128184D01*
X0127200Y0398316D02*
Y0400284D01*
X0120416Y0404500D02*
X0122384D01*
X0121400Y0403516D02*
Y0405484D01*
X0343959Y0364400D02*
X0345928D01*
X0344943Y0363416D02*
Y0365384D01*
X0246716Y0348000D02*
X0248684D01*
X0247700Y0347016D02*
Y0348984D01*
X0246316Y0407000D02*
X0248284D01*
X0247300Y0406016D02*
Y0407984D01*
X0198516Y0436100D02*
X0200484D01*
X0199500Y0435116D02*
Y0437084D01*
X0350016Y0359100D02*
X0351984D01*
X0351000Y0358116D02*
Y0360084D01*
X0299216Y0197800D02*
X0301184D01*
X0300200Y0196816D02*
Y0198784D01*
X0251416Y0348000D02*
X0253384D01*
X0252400Y0347016D02*
Y0348984D01*
X0301916Y0292637D02*
X0303884D01*
X0302900Y0291653D02*
Y0293621D01*
X0250816Y0407000D02*
X0252784D01*
X0251800Y0406016D02*
Y0407984D01*
X0199216Y0363300D02*
X0201184D01*
X0200200Y0362316D02*
Y0364284D01*
X0199416Y0377300D02*
X0201384D01*
X0200400Y0376316D02*
Y0378284D01*
M02*
